<svg xmlns="http://www.w3.org/2000/svg" xmlns:xlink="http://www.w3.org/1999/xlink" width="1366" zoomAndPan="magnify" viewBox="0 0 1024.5 576" height="768" preserveAspectRatio="xMidYMid meet" version="1.0"><defs><clipPath id="6810332015"><path d="M 369.441406 145.441406 L 654.304688 145.441406 L 654.304688 430.304688 L 369.441406 430.304688 Z M 369.441406 145.441406 " clip-rule="nonzero"/></clipPath><clipPath id="fb0e6a436f"><path d="M 369.441406 145.441406 L 620 145.441406 L 620 430.304688 L 369.441406 430.304688 Z M 369.441406 145.441406 " clip-rule="nonzero"/></clipPath><clipPath id="0306afcab3"><path d="M 369.441406 145.441406 L 654.304688 145.441406 L 654.304688 396 L 369.441406 396 Z M 369.441406 145.441406 " clip-rule="nonzero"/></clipPath></defs><g clip-path="url(#6810332015)"><path stroke-linecap="butt" transform="matrix(5.478095, 0, 0, 5.478095, 369.442531, 145.442455)" fill="none" stroke-linejoin="miter" d="M 40.939834 27.310281 C 40.902041 27.744539 40.844996 28.176658 40.768698 28.606638 C 40.693112 29.036617 40.598275 29.462318 40.48561 29.883741 C 40.372232 30.305164 40.241028 30.720882 40.091997 31.130895 C 39.942253 31.540909 39.775395 31.943792 39.590711 32.338831 C 39.406739 32.734584 39.204941 33.121066 38.986743 33.498992 C 38.768544 33.876917 38.534658 34.24486 38.284372 34.602106 C 38.034085 34.959353 37.768111 35.305904 37.487876 35.639619 C 37.206927 35.974048 36.91243 36.295641 36.604385 36.604399 C 36.295627 36.912444 35.974034 37.206941 35.639605 37.487889 C 35.30589 37.768125 34.959339 38.033386 34.602093 38.284385 C 34.244846 38.534672 33.876903 38.768558 33.498978 38.986757 C 33.121052 39.204955 32.73457 39.406753 32.338817 39.590724 C 31.943778 39.775409 31.540895 39.942267 31.130882 40.092011 C 30.720868 40.241042 30.30515 40.372246 29.883727 40.485624 C 29.462304 40.598288 29.036603 40.693126 28.606624 40.768711 C 28.176644 40.84501 27.744526 40.902055 27.310268 40.939848 " stroke="#04080c" stroke-width="5" stroke-opacity="1" stroke-miterlimit="4"/></g><g clip-path="url(#fb0e6a436f)"><path stroke-linecap="butt" transform="matrix(5.478095, 0, 0, 5.478095, 369.442531, 145.442455)" fill="none" stroke-linejoin="miter" d="M 17.40006 38.29009 C 17.0421 38.039803 16.696263 37.773829 16.361834 37.493594 C 16.027406 37.212645 15.705099 36.918149 15.396341 36.609391 C 15.087583 36.299919 14.793086 35.978326 14.512138 35.643898 C 14.231902 35.309469 13.965928 34.963632 13.715642 34.605672 C 13.465355 34.247712 13.230756 33.879769 13.012558 33.501844 C 12.794359 33.123918 12.592561 32.736723 12.407877 32.34097 C 12.223905 31.945218 12.057048 31.541622 11.907303 31.131609 C 11.758272 30.720882 11.627068 30.305164 11.51369 29.883028 C 11.401026 29.461605 11.306188 29.035191 11.230603 28.605211 C 11.155018 28.175232 11.097972 27.743113 11.06018 27.308142 C 11.022387 26.872458 11.003134 26.436774 11.003134 26.000377 C 11.003134 25.563267 11.022387 25.127583 11.06018 24.692612 C 11.098685 24.257641 11.155731 23.824809 11.231316 23.39483 C 11.307614 22.96485 11.401739 22.539149 11.515117 22.117013 C 11.628494 21.695591 11.759699 21.279159 11.90873 20.869146 C 12.058474 20.458419 12.225331 20.055536 12.410016 19.659784 " stroke="#04080c" stroke-width="5" stroke-opacity="1" stroke-miterlimit="4"/></g><g clip-path="url(#0306afcab3)"><path stroke-linecap="butt" transform="matrix(5.478095, 0, 0, 5.478095, 369.442531, 145.442455)" fill="none" stroke-linejoin="miter" d="M 19.65977 12.41003 C 20.055522 12.225345 20.459118 12.058488 20.869132 11.908743 C 21.279145 11.759712 21.695577 11.627795 22.116999 11.51513 C 22.539135 11.401753 22.964836 11.307628 23.394816 11.23133 C 23.824795 11.155745 24.257627 11.098699 24.692598 11.060194 C 25.127569 11.022401 25.563253 11.003148 26.000363 11.003148 C 26.43676 11.003148 26.872444 11.022401 27.308128 11.060194 C 27.743099 11.097986 28.175218 11.155031 28.605198 11.230617 C 29.035177 11.306202 29.461591 11.40104 29.883014 11.513704 C 30.30515 11.627082 30.720868 11.758286 31.131595 11.907317 C 31.541608 12.056348 31.945204 12.223919 32.340957 12.40789 C 32.736709 12.592575 33.123904 12.794373 33.50183 13.012571 C 33.879756 13.23077 34.247698 13.465369 34.605658 13.715656 C 34.963618 13.965942 35.309455 14.231916 35.643884 14.512152 C 35.978312 14.7931 36.299906 15.087597 36.609377 15.396355 C 36.918135 15.705113 37.212632 16.027419 37.49358 16.361848 C 37.773815 16.696277 38.03979 17.042114 38.290076 17.400074 " stroke="#04080c" stroke-width="5" stroke-opacity="1" stroke-miterlimit="4"/></g><path fill="#0d9373" d="M 539.261719 287.871094 C 539.261719 288.769531 539.21875 289.664062 539.132812 290.558594 C 539.042969 291.449219 538.914062 292.335938 538.738281 293.214844 C 538.5625 294.097656 538.34375 294.964844 538.085938 295.824219 C 537.824219 296.683594 537.523438 297.527344 537.179688 298.355469 C 536.835938 299.183594 536.453125 299.992188 536.027344 300.785156 C 535.605469 301.574219 535.144531 302.34375 534.648438 303.089844 C 534.148438 303.835938 533.613281 304.554688 533.046875 305.25 C 532.476562 305.941406 531.875 306.605469 531.242188 307.242188 C 530.605469 307.875 529.941406 308.476562 529.25 309.046875 C 528.554688 309.613281 527.835938 310.148438 527.089844 310.648438 C 526.34375 311.144531 525.574219 311.605469 524.785156 312.027344 C 523.992188 312.453125 523.183594 312.835938 522.355469 313.179688 C 521.527344 313.523438 520.683594 313.824219 519.824219 314.082031 C 518.964844 314.34375 518.097656 314.5625 517.214844 314.738281 C 516.335938 314.910156 515.449219 315.042969 514.558594 315.132812 C 513.664062 315.21875 512.769531 315.261719 511.871094 315.261719 C 510.976562 315.261719 510.082031 315.21875 509.1875 315.132812 C 508.296875 315.042969 507.410156 314.910156 506.53125 314.738281 C 505.648438 314.5625 504.78125 314.34375 503.921875 314.082031 C 503.0625 313.824219 502.21875 313.523438 501.390625 313.179688 C 500.5625 312.835938 499.753906 312.453125 498.960938 312.027344 C 498.171875 311.605469 497.402344 311.144531 496.65625 310.648438 C 495.910156 310.148438 495.191406 309.613281 494.496094 309.046875 C 493.804688 308.476562 493.140625 307.875 492.503906 307.242188 C 491.871094 306.605469 491.269531 305.941406 490.699219 305.25 C 490.128906 304.554688 489.597656 303.835938 489.097656 303.089844 C 488.601562 302.34375 488.140625 301.574219 487.714844 300.785156 C 487.292969 299.992188 486.910156 299.183594 486.566406 298.355469 C 486.222656 297.527344 485.921875 296.683594 485.660156 295.824219 C 485.402344 294.964844 485.183594 294.097656 485.007812 293.214844 C 484.832031 292.335938 484.703125 291.449219 484.613281 290.558594 C 484.527344 289.664062 484.484375 288.769531 484.484375 287.871094 C 484.484375 286.976562 484.527344 286.082031 484.613281 285.1875 C 484.703125 284.296875 484.832031 283.410156 485.007812 282.53125 C 485.183594 281.648438 485.402344 280.78125 485.660156 279.921875 C 485.921875 279.0625 486.222656 278.21875 486.566406 277.390625 C 486.910156 276.5625 487.292969 275.753906 487.714844 274.960938 C 488.140625 274.171875 488.601562 273.402344 489.097656 272.65625 C 489.597656 271.910156 490.128906 271.191406 490.699219 270.496094 C 491.269531 269.804688 491.871094 269.140625 492.503906 268.503906 C 493.140625 267.871094 493.804688 267.269531 494.496094 266.699219 C 495.191406 266.128906 495.910156 265.597656 496.65625 265.097656 C 497.402344 264.601562 498.171875 264.140625 498.960938 263.714844 C 499.753906 263.292969 500.5625 262.910156 501.390625 262.566406 C 502.21875 262.222656 503.0625 261.921875 503.921875 261.660156 C 504.78125 261.402344 505.648438 261.183594 506.53125 261.007812 C 507.410156 260.832031 508.296875 260.703125 509.1875 260.613281 C 510.082031 260.527344 510.976562 260.484375 511.871094 260.484375 C 512.769531 260.484375 513.664062 260.527344 514.558594 260.613281 C 515.449219 260.703125 516.335938 260.832031 517.214844 261.007812 C 518.097656 261.183594 518.964844 261.402344 519.824219 261.660156 C 520.683594 261.921875 521.527344 262.222656 522.355469 262.566406 C 523.183594 262.910156 523.992188 263.292969 524.785156 263.714844 C 525.574219 264.140625 526.34375 264.601562 527.089844 265.097656 C 527.835938 265.597656 528.554688 266.128906 529.25 266.699219 C 529.941406 267.269531 530.605469 267.871094 531.242188 268.503906 C 531.875 269.140625 532.476562 269.804688 533.046875 270.496094 C 533.613281 271.191406 534.148438 271.910156 534.648438 272.65625 C 535.144531 273.402344 535.605469 274.171875 536.027344 274.960938 C 536.453125 275.753906 536.835938 276.5625 537.179688 277.390625 C 537.523438 278.21875 537.824219 279.0625 538.085938 279.921875 C 538.34375 280.78125 538.5625 281.648438 538.738281 282.53125 C 538.914062 283.410156 539.042969 284.296875 539.132812 285.1875 C 539.21875 286.082031 539.261719 286.976562 539.261719 287.871094 Z M 539.261719 287.871094 " fill-opacity="1" fill-rule="nonzero"/></svg>