<svg xmlns="http://www.w3.org/2000/svg" xmlns:xlink="http://www.w3.org/1999/xlink" width="1366" zoomAndPan="magnify" viewBox="0 0 1024.5 576" height="768" preserveAspectRatio="xMidYMid meet" version="1.0"><defs><clipPath id="b392783310"><path d="M 368.929688 144.929688 L 655.289062 144.929688 L 655.289062 431.289062 L 368.929688 431.289062 Z M 368.929688 144.929688 " clip-rule="nonzero"/></clipPath><clipPath id="9f2e2933c7"><path d="M 368.929688 144.929688 L 621 144.929688 L 621 431.289062 L 368.929688 431.289062 Z M 368.929688 144.929688 " clip-rule="nonzero"/></clipPath><clipPath id="f89bd7f25b"><path d="M 368.929688 144.929688 L 655.289062 144.929688 L 655.289062 397 L 368.929688 397 Z M 368.929688 144.929688 " clip-rule="nonzero"/></clipPath></defs><g clip-path="url(#b392783310)"><path stroke-linecap="butt" transform="matrix(5.506928, 0, 0, 5.506928, 368.930146, 144.930039)" fill="none" stroke-linejoin="miter" d="M 40.939822 27.309994 C 40.901518 27.744816 40.844772 28.1768 40.768873 28.606656 C 40.692974 29.036512 40.598633 29.462113 40.485139 29.883457 C 40.372355 30.304801 40.241129 30.720471 40.092168 31.131175 C 39.942499 31.54117 39.775806 31.943362 39.591379 32.33917 C 39.406243 32.734269 39.205501 33.121565 38.987027 33.498931 C 38.768552 33.877006 38.534472 34.244441 38.284077 34.601945 C 38.033682 34.959449 37.768391 35.305604 37.487495 35.6397 C 37.207308 35.973796 36.912935 36.295834 36.604375 36.604394 C 36.295814 36.912954 35.973777 37.207328 35.639681 37.487514 C 35.305584 37.768411 34.95943 38.033701 34.601925 38.284096 C 34.245131 38.534491 33.876986 38.768571 33.498911 38.987046 C 33.121546 39.205521 32.734959 39.406262 32.339151 39.591398 C 31.943343 39.775825 31.54115 39.942518 31.131155 40.091479 C 30.721161 40.241148 30.304782 40.372375 29.883437 40.485159 C 29.462093 40.598652 29.036493 40.692994 28.606637 40.768892 C 28.17678 40.844791 27.744796 40.901538 27.309975 40.939842 " stroke="#ffffff" stroke-width="5" stroke-opacity="1" stroke-miterlimit="4"/></g><g clip-path="url(#9f2e2933c7)"><path stroke-linecap="butt" transform="matrix(5.506928, 0, 0, 5.506928, 368.930146, 144.930039)" fill="none" stroke-linejoin="miter" d="M 17.399873 38.289771 C 17.042369 38.039376 16.696214 37.774085 16.361409 37.493189 C 16.027312 37.212293 15.705275 36.917919 15.396715 36.609359 C 15.088154 36.30009 14.793072 35.978762 14.512176 35.643956 C 14.231989 35.30986 13.965989 34.963705 13.715594 34.605492 C 13.465199 34.247987 13.231119 33.879843 13.012644 33.501768 C 12.794169 33.123693 12.592718 32.736397 12.408292 32.340589 C 12.223865 31.944781 12.056462 31.541879 11.907502 31.131884 C 11.757833 30.72118 11.626606 30.304801 11.513822 29.883457 C 11.401038 29.461403 11.306696 29.035803 11.230798 28.605237 C 11.154899 28.175381 11.098152 27.742688 11.059848 27.307866 C 11.022254 26.873045 11.003102 26.436804 11.003102 25.999855 C 11.003102 25.563614 11.022254 25.127374 11.060558 24.692553 C 11.098862 24.257731 11.155608 23.825037 11.231507 23.395181 C 11.307406 22.965325 11.401747 22.539015 11.51524 22.116962 C 11.628025 21.695618 11.759251 21.279239 11.908921 20.869244 C 12.05859 20.45854 12.225284 20.055638 12.40971 19.65983 " stroke="#ffffff" stroke-width="5" stroke-opacity="1" stroke-miterlimit="4"/></g><g clip-path="url(#f89bd7f25b)"><path stroke-linecap="butt" transform="matrix(5.506928, 0, 0, 5.506928, 368.930146, 144.930039)" fill="none" stroke-linejoin="miter" d="M 19.65981 12.40973 C 20.055619 12.225303 20.45852 12.05861 20.869224 11.90894 C 21.279219 11.759271 21.695598 11.628044 22.116942 11.51526 C 22.538996 11.401767 22.965306 11.307425 23.395162 11.231526 C 23.825018 11.155628 24.257712 11.098881 24.692533 11.060577 C 25.127355 11.022273 25.563595 11.003121 26.000545 11.003121 C 26.436785 11.003121 26.873025 11.022273 27.307847 11.059868 C 27.742668 11.098172 28.175362 11.154918 28.605218 11.230817 C 29.035784 11.306716 29.461384 11.401057 29.883437 11.513841 C 30.304782 11.626625 30.721161 11.757852 31.131865 11.907521 C 31.54186 12.056482 31.944761 12.223884 32.340569 12.408311 C 32.736378 12.592738 33.123674 12.794189 33.501749 13.012663 C 33.879824 13.230429 34.247968 13.465218 34.605472 13.715613 C 34.963686 13.966008 35.30984 14.232008 35.643937 14.512195 C 35.978742 14.793091 36.30007 15.088174 36.60934 15.396734 C 36.9179 15.705294 37.212274 16.027332 37.49317 16.361428 C 37.774066 16.696233 38.039357 17.042388 38.289751 17.399893 " stroke="#ffffff" stroke-width="5" stroke-opacity="1" stroke-miterlimit="4"/></g><path fill="#0d9373" d="M 539.644531 288.109375 C 539.644531 289.011719 539.601562 289.910156 539.511719 290.808594 C 539.425781 291.707031 539.292969 292.597656 539.117188 293.480469 C 538.941406 294.367188 538.722656 295.238281 538.460938 296.101562 C 538.199219 296.964844 537.894531 297.8125 537.550781 298.648438 C 537.203125 299.480469 536.820312 300.292969 536.394531 301.089844 C 535.96875 301.886719 535.503906 302.65625 535.003906 303.40625 C 534.503906 304.15625 533.96875 304.882812 533.394531 305.578125 C 532.824219 306.273438 532.21875 306.941406 531.582031 307.582031 C 530.941406 308.21875 530.273438 308.824219 529.578125 309.394531 C 528.882812 309.96875 528.15625 310.503906 527.40625 311.003906 C 526.65625 311.503906 525.886719 311.96875 525.089844 312.394531 C 524.292969 312.820312 523.480469 313.203125 522.648438 313.550781 C 521.8125 313.894531 520.964844 314.199219 520.101562 314.460938 C 519.238281 314.722656 518.367188 314.941406 517.480469 315.117188 C 516.597656 315.292969 515.707031 315.425781 514.808594 315.511719 C 513.910156 315.601562 513.011719 315.644531 512.109375 315.644531 C 511.207031 315.644531 510.308594 315.601562 509.410156 315.511719 C 508.515625 315.425781 507.621094 315.292969 506.738281 315.117188 C 505.855469 314.941406 504.980469 314.722656 504.117188 314.460938 C 503.253906 314.199219 502.40625 313.894531 501.574219 313.550781 C 500.738281 313.203125 499.925781 312.820312 499.128906 312.394531 C 498.335938 311.96875 497.5625 311.503906 496.8125 311.003906 C 496.0625 310.503906 495.339844 309.96875 494.640625 309.394531 C 493.945312 308.824219 493.277344 308.21875 492.640625 307.582031 C 492.003906 306.941406 491.398438 306.273438 490.824219 305.578125 C 490.253906 304.882812 489.71875 304.15625 489.214844 303.40625 C 488.714844 302.65625 488.253906 301.886719 487.828125 301.089844 C 487.402344 300.292969 487.015625 299.480469 486.671875 298.648438 C 486.328125 297.8125 486.023438 296.964844 485.761719 296.101562 C 485.5 295.238281 485.28125 294.367188 485.105469 293.480469 C 484.929688 292.597656 484.796875 291.707031 484.707031 290.808594 C 484.621094 289.910156 484.574219 289.011719 484.574219 288.109375 C 484.574219 287.207031 484.621094 286.308594 484.707031 285.410156 C 484.796875 284.515625 484.929688 283.621094 485.105469 282.738281 C 485.28125 281.855469 485.5 280.980469 485.761719 280.117188 C 486.023438 279.253906 486.328125 278.40625 486.671875 277.574219 C 487.015625 276.738281 487.402344 275.925781 487.828125 275.128906 C 488.253906 274.335938 488.714844 273.5625 489.214844 272.8125 C 489.71875 272.0625 490.253906 271.339844 490.824219 270.640625 C 491.398438 269.945312 492.003906 269.277344 492.640625 268.640625 C 493.277344 268.003906 493.945312 267.398438 494.640625 266.824219 C 495.339844 266.253906 496.0625 265.71875 496.8125 265.214844 C 497.5625 264.714844 498.335938 264.25 499.128906 263.828125 C 499.925781 263.402344 500.738281 263.015625 501.574219 262.671875 C 502.40625 262.328125 503.253906 262.023438 504.117188 261.761719 C 504.980469 261.5 505.855469 261.28125 506.738281 261.105469 C 507.621094 260.929688 508.515625 260.796875 509.410156 260.707031 C 510.308594 260.621094 511.207031 260.574219 512.109375 260.574219 C 513.011719 260.574219 513.910156 260.621094 514.808594 260.707031 C 515.707031 260.796875 516.597656 260.929688 517.480469 261.105469 C 518.367188 261.28125 519.238281 261.5 520.101562 261.761719 C 520.964844 262.023438 521.8125 262.328125 522.648438 262.671875 C 523.480469 263.015625 524.292969 263.402344 525.089844 263.828125 C 525.886719 264.25 526.65625 264.714844 527.40625 265.214844 C 528.15625 265.71875 528.882812 266.253906 529.578125 266.824219 C 530.273438 267.398438 530.941406 268.003906 531.582031 268.640625 C 532.21875 269.277344 532.824219 269.945312 533.394531 270.640625 C 533.96875 271.339844 534.503906 272.0625 535.003906 272.8125 C 535.503906 273.5625 535.96875 274.335938 536.394531 275.128906 C 536.820312 275.925781 537.203125 276.738281 537.550781 277.574219 C 537.894531 278.40625 538.199219 279.253906 538.460938 280.117188 C 538.722656 280.980469 538.941406 281.855469 539.117188 282.738281 C 539.292969 283.621094 539.425781 284.515625 539.511719 285.410156 C 539.601562 286.308594 539.644531 287.207031 539.644531 288.109375 Z M 539.644531 288.109375 " fill-opacity="1" fill-rule="nonzero"/></svg>