<svg xmlns="http://www.w3.org/2000/svg" xmlns:xlink="http://www.w3.org/1999/xlink" width="1366" zoomAndPan="magnify" viewBox="0 0 1024.5 576" height="768" preserveAspectRatio="xMidYMid meet" version="1.0"><defs><g/><clipPath id="4e87c0d6f0"><path d="M 0.335938 8.007812 L 187.769531 8.007812 L 187.769531 195.445312 L 0.335938 195.445312 Z M 0.335938 8.007812 " clip-rule="nonzero"/></clipPath><clipPath id="007ce9ebbd"><path d="M 0.335938 8.007812 L 166 8.007812 L 166 195.445312 L 0.335938 195.445312 Z M 0.335938 8.007812 " clip-rule="nonzero"/></clipPath><clipPath id="2ffb345c56"><path d="M 0.335938 8.007812 L 187.769531 8.007812 L 187.769531 173 L 0.335938 173 Z M 0.335938 8.007812 " clip-rule="nonzero"/></clipPath><clipPath id="d8fed41027"><path d="M 185 0.0507812 L 632.398438 0.0507812 L 632.398438 204.191406 L 185 204.191406 Z M 185 0.0507812 " clip-rule="nonzero"/></clipPath><clipPath id="07efe0a748"><rect x="0" width="448" y="0" height="205"/></clipPath><clipPath id="fd315a38ef"><rect x="0" width="633" y="0" height="205"/></clipPath></defs><g transform="matrix(1, 0, 0, 1, 194, 186)"><g clip-path="url(#fd315a38ef)"><g clip-path="url(#4e87c0d6f0)"><path stroke-linecap="butt" transform="matrix(3.604501, 0, 0, 3.604501, 0.335353, 8.009506)" fill="none" stroke-linejoin="miter" d="M 40.939647 27.31022 C 40.901717 27.74479 40.84428 28.177192 40.76842 28.606343 C 40.69256 29.036578 40.598277 29.462478 40.48557 29.884042 C 40.372864 30.304524 40.240651 30.72067 40.092182 31.131398 C 39.942629 31.541042 39.775737 31.944184 39.591506 32.338656 C 39.406191 32.734212 39.205703 33.121098 38.986793 33.499314 C 38.768966 33.877531 38.534884 34.24491 38.284546 34.602536 C 38.034208 34.960161 37.768698 35.305866 37.488016 35.63965 C 37.207334 35.974518 36.912563 36.295298 36.603705 36.604156 C 36.29593 36.913015 35.974067 37.207785 35.640283 37.487384 C 35.305415 37.768066 34.95971 38.033576 34.602084 38.283914 C 34.244458 38.534252 33.877079 38.768334 33.498863 38.987245 C 33.12173 39.205071 32.734844 39.406642 32.339288 39.590874 C 31.943732 39.775105 31.54059 39.941997 31.130946 40.09155 C 30.721302 40.241102 30.305156 40.372232 29.883591 40.484938 C 29.462026 40.598728 29.036126 40.693011 28.606975 40.768871 C 28.17674 40.844731 27.744338 40.902168 27.309769 40.940098 " stroke="#ffffff" stroke-width="5" stroke-opacity="1" stroke-miterlimit="4"/></g><g clip-path="url(#007ce9ebbd)"><path stroke-linecap="butt" transform="matrix(3.604501, 0, 0, 3.604501, 0.335353, 8.009506)" fill="none" stroke-linejoin="miter" d="M 17.400283 38.290416 C 17.042657 38.040078 16.695869 37.773484 16.362084 37.492802 C 16.027217 37.21212 15.705353 36.91735 15.396495 36.609575 C 15.087636 36.300716 14.792866 35.978853 14.512184 35.643985 C 14.231502 35.309118 13.965992 34.963413 13.715654 34.605787 C 13.465315 34.248161 13.231233 33.879698 13.012323 33.501482 C 12.794496 33.123265 12.592925 32.736379 12.408694 32.340823 C 12.223379 31.945268 12.056487 31.542126 11.906934 31.131398 C 11.758465 30.721754 11.627336 30.305607 11.513546 29.882959 C 11.400839 29.461394 11.306556 29.035494 11.230696 28.605259 C 11.154836 28.175025 11.098483 27.742623 11.060553 27.308053 C 11.021539 26.8724 11.003116 26.436746 11.003116 26.00001 C 11.003116 25.563273 11.022623 25.127619 11.060553 24.69305 C 11.098483 24.257397 11.15592 23.824994 11.23178 23.39476 C 11.30764 22.964525 11.401923 22.538625 11.514629 22.11706 C 11.628419 21.695495 11.759549 21.279349 11.909101 20.868621 C 12.058654 20.458977 12.225546 20.055835 12.409777 19.660279 " stroke="#ffffff" stroke-width="5" stroke-opacity="1" stroke-miterlimit="4"/></g><g clip-path="url(#2ffb345c56)"><path stroke-linecap="butt" transform="matrix(3.604501, 0, 0, 3.604501, 0.335353, 8.009506)" fill="none" stroke-linejoin="miter" d="M 19.659828 12.410229 C 20.055384 12.224914 20.458525 12.058022 20.869253 11.908469 C 21.278897 11.758917 21.695044 11.627787 22.117692 11.515081 C 22.539257 11.402375 22.965157 11.307008 23.395392 11.231148 C 23.824543 11.155288 24.258029 11.098934 24.692598 11.059921 C 25.127168 11.021991 25.563905 11.003568 26.000642 11.003568 C 26.437379 11.003568 26.873032 11.021991 27.307601 11.059921 C 27.743255 11.097851 28.175657 11.155288 28.605891 11.231148 C 29.035042 11.307008 29.460942 11.401291 29.883591 11.513997 C 30.305156 11.626703 30.721302 11.757833 31.13203 11.907386 C 31.541674 12.056938 31.944816 12.22383 32.340372 12.408062 C 32.737011 12.592293 33.123897 12.793864 33.502114 13.012774 C 33.88033 13.230601 34.247709 13.464683 34.605335 13.716105 C 34.962961 13.966443 35.30975 14.231953 35.643534 14.512635 C 35.978402 14.793317 36.300265 15.088088 36.609123 15.396946 C 36.917982 15.705805 37.212752 16.026585 37.493434 16.361452 C 37.774117 16.69632 38.039627 17.042025 38.289965 17.399651 " stroke="#ffffff" stroke-width="5" stroke-opacity="1" stroke-miterlimit="4"/></g><path fill="#0d9373" d="M 112.074219 101.726562 C 112.074219 102.316406 112.046875 102.90625 111.988281 103.492188 C 111.929688 104.082031 111.84375 104.664062 111.730469 105.242188 C 111.613281 105.820312 111.46875 106.394531 111.300781 106.957031 C 111.128906 107.523438 110.929688 108.078125 110.703125 108.625 C 110.476562 109.167969 110.226562 109.703125 109.945312 110.222656 C 109.667969 110.742188 109.367188 111.25 109.039062 111.738281 C 108.710938 112.230469 108.359375 112.703125 107.984375 113.160156 C 107.609375 113.617188 107.214844 114.054688 106.796875 114.46875 C 106.378906 114.886719 105.941406 115.285156 105.484375 115.65625 C 105.03125 116.03125 104.554688 116.382812 104.066406 116.710938 C 103.574219 117.039062 103.070312 117.34375 102.546875 117.621094 C 102.027344 117.898438 101.496094 118.152344 100.949219 118.378906 C 100.402344 118.601562 99.847656 118.800781 99.285156 118.972656 C 98.71875 119.144531 98.148438 119.289062 97.570312 119.402344 C 96.988281 119.519531 96.40625 119.605469 95.820312 119.664062 C 95.230469 119.71875 94.644531 119.75 94.050781 119.75 C 93.460938 119.75 92.875 119.71875 92.285156 119.664062 C 91.699219 119.605469 91.117188 119.519531 90.535156 119.402344 C 89.957031 119.289062 89.386719 119.144531 88.820312 118.972656 C 88.257812 118.800781 87.699219 118.601562 87.15625 118.378906 C 86.609375 118.152344 86.078125 117.898438 85.554688 117.621094 C 85.035156 117.34375 84.53125 117.039062 84.039062 116.710938 C 83.546875 116.382812 83.074219 116.03125 82.617188 115.65625 C 82.164062 115.285156 81.726562 114.886719 81.308594 114.46875 C 80.890625 114.054688 80.496094 113.617188 80.121094 113.160156 C 79.746094 112.703125 79.394531 112.230469 79.066406 111.738281 C 78.738281 111.25 78.4375 110.742188 78.15625 110.222656 C 77.878906 109.703125 77.628906 109.167969 77.402344 108.625 C 77.175781 108.078125 76.976562 107.523438 76.804688 106.957031 C 76.632812 106.394531 76.492188 105.820312 76.375 105.242188 C 76.261719 104.664062 76.175781 104.082031 76.117188 103.492188 C 76.058594 102.90625 76.03125 102.316406 76.03125 101.726562 C 76.03125 101.136719 76.058594 100.546875 76.117188 99.960938 C 76.175781 99.371094 76.261719 98.789062 76.375 98.210938 C 76.492188 97.632812 76.632812 97.058594 76.804688 96.496094 C 76.976562 95.929688 77.175781 95.375 77.402344 94.828125 C 77.628906 94.285156 77.878906 93.75 78.15625 93.230469 C 78.4375 92.710938 78.738281 92.203125 79.066406 91.714844 C 79.394531 91.222656 79.746094 90.75 80.121094 90.292969 C 80.496094 89.835938 80.890625 89.398438 81.308594 88.984375 C 81.726562 88.566406 82.164062 88.167969 82.617188 87.796875 C 83.074219 87.421875 83.546875 87.070312 84.039062 86.742188 C 84.53125 86.414062 85.035156 86.109375 85.554688 85.832031 C 86.078125 85.554688 86.609375 85.300781 87.15625 85.074219 C 87.699219 84.851562 88.257812 84.652344 88.820312 84.480469 C 89.386719 84.308594 89.957031 84.164062 90.535156 84.050781 C 91.117188 83.933594 91.699219 83.847656 92.285156 83.789062 C 92.875 83.734375 93.460938 83.703125 94.050781 83.703125 C 94.644531 83.703125 95.230469 83.734375 95.820312 83.789062 C 96.40625 83.847656 96.988281 83.933594 97.570312 84.050781 C 98.148438 84.164062 98.71875 84.308594 99.285156 84.480469 C 99.847656 84.652344 100.402344 84.851562 100.949219 85.074219 C 101.496094 85.300781 102.027344 85.554688 102.546875 85.832031 C 103.070312 86.109375 103.574219 86.414062 104.066406 86.742188 C 104.554688 87.070312 105.03125 87.421875 105.484375 87.796875 C 105.941406 88.167969 106.378906 88.566406 106.796875 88.984375 C 107.214844 89.398438 107.609375 89.835938 107.984375 90.292969 C 108.359375 90.75 108.710938 91.222656 109.039062 91.714844 C 109.367188 92.203125 109.667969 92.710938 109.945312 93.230469 C 110.226562 93.75 110.476562 94.285156 110.703125 94.828125 C 110.929688 95.375 111.128906 95.929688 111.300781 96.496094 C 111.46875 97.058594 111.613281 97.632812 111.730469 98.210938 C 111.84375 98.789062 111.929688 99.371094 111.988281 99.960938 C 112.046875 100.546875 112.074219 101.136719 112.074219 101.726562 Z M 112.074219 101.726562 " fill-opacity="1" fill-rule="nonzero"/><g clip-path="url(#d8fed41027)"><g transform="matrix(1, 0, 0, 1, 185, -0.000000000000056843)"><g clip-path="url(#07efe0a748)"><g fill="#ffffff" fill-opacity="1"><g transform="translate(0.445053, 157.645817)"><g><path d="M 12.5 0 L 12.5 -110.953125 L 32.8125 -110.953125 L 32.8125 -17.65625 L 85.484375 -17.65625 L 85.484375 0 Z M 12.5 0 "/></g></g></g><g fill="#ffffff" fill-opacity="1"><g transform="translate(87.021261, 157.645817)"><g><path d="M 47.203125 1.875 C 38.960938 1.875 31.742188 0.078125 25.546875 -3.515625 C 19.347656 -7.109375 14.554688 -12.1875 11.171875 -18.75 C 7.785156 -25.3125 6.09375 -32.972656 6.09375 -41.734375 C 6.09375 -50.585938 7.785156 -58.269531 11.171875 -64.78125 C 14.554688 -71.289062 19.347656 -76.34375 25.546875 -79.9375 C 31.742188 -83.53125 38.960938 -85.328125 47.203125 -85.328125 C 55.429688 -85.328125 62.617188 -83.53125 68.765625 -79.9375 C 74.910156 -76.34375 79.675781 -71.289062 83.0625 -64.78125 C 86.445312 -58.269531 88.140625 -50.585938 88.140625 -41.734375 C 88.140625 -32.972656 86.445312 -25.3125 83.0625 -18.75 C 79.675781 -12.1875 74.910156 -7.109375 68.765625 -3.515625 C 62.617188 0.078125 55.429688 1.875 47.203125 1.875 Z M 47.203125 -14.375 C 53.660156 -14.375 58.632812 -16.769531 62.125 -21.5625 C 65.613281 -26.351562 67.359375 -33.078125 67.359375 -41.734375 C 67.359375 -50.378906 65.613281 -57.097656 62.125 -61.890625 C 58.632812 -66.679688 53.660156 -69.078125 47.203125 -69.078125 C 40.734375 -69.078125 35.726562 -66.679688 32.1875 -61.890625 C 28.644531 -57.097656 26.875 -50.378906 26.875 -41.734375 C 26.875 -33.078125 28.644531 -26.351562 32.1875 -21.5625 C 35.726562 -16.769531 40.734375 -14.375 47.203125 -14.375 Z M 47.203125 -14.375 "/></g></g></g><g fill="#ffffff" fill-opacity="1"><g transform="translate(179.692388, 157.645817)"><g><path d="M 47.203125 1.875 C 38.960938 1.875 31.742188 0.078125 25.546875 -3.515625 C 19.347656 -7.109375 14.554688 -12.1875 11.171875 -18.75 C 7.785156 -25.3125 6.09375 -32.972656 6.09375 -41.734375 C 6.09375 -50.484375 7.785156 -58.140625 11.171875 -64.703125 C 14.554688 -71.265625 19.347656 -76.34375 25.546875 -79.9375 C 31.742188 -83.53125 38.960938 -85.328125 47.203125 -85.328125 C 57.722656 -85.328125 66.523438 -82.566406 73.609375 -77.046875 C 80.691406 -71.523438 84.859375 -63.816406 86.109375 -53.921875 L 65.484375 -52.828125 C 64.648438 -58.140625 62.617188 -62.175781 59.390625 -64.9375 C 56.160156 -67.695312 52.097656 -69.078125 47.203125 -69.078125 C 40.734375 -69.078125 35.726562 -66.679688 32.1875 -61.890625 C 28.644531 -57.097656 26.875 -50.378906 26.875 -41.734375 C 26.875 -33.078125 28.644531 -26.351562 32.1875 -21.5625 C 35.726562 -16.769531 40.734375 -14.375 47.203125 -14.375 C 52.097656 -14.375 56.1875 -15.804688 59.46875 -18.671875 C 62.75 -21.535156 64.753906 -25.882812 65.484375 -31.71875 L 86.109375 -30.78125 C 85.378906 -24.113281 83.269531 -18.332031 79.78125 -13.4375 C 76.289062 -8.539062 71.785156 -4.765625 66.265625 -2.109375 C 60.742188 0.546875 54.390625 1.875 47.203125 1.875 Z M 47.203125 1.875 "/></g></g></g><g fill="#ffffff" fill-opacity="1"><g transform="translate(268.769181, 157.645817)"><g><path d="M 38.4375 1.875 C 29.894531 1.875 23.175781 -0.910156 18.28125 -6.484375 C 13.382812 -12.054688 10.9375 -19.789062 10.9375 -29.6875 L 10.9375 -83.453125 L 30.9375 -83.453125 L 30.9375 -34.6875 C 30.9375 -27.707031 32.109375 -22.578125 34.453125 -19.296875 C 36.796875 -16.015625 40.367188 -14.375 45.171875 -14.375 C 50.585938 -14.375 54.78125 -16.171875 57.75 -19.765625 C 60.71875 -23.359375 62.203125 -28.59375 62.203125 -35.46875 L 62.203125 -83.453125 L 82.203125 -83.453125 L 82.203125 0 L 63.921875 0 L 63.609375 -13.59375 C 59.128906 -3.28125 50.738281 1.875 38.4375 1.875 Z M 38.4375 1.875 "/></g></g></g><g fill="#ffffff" fill-opacity="1"><g transform="translate(360.502682, 157.645817)"><g><path d="M 44.859375 1.875 C 32.140625 1.875 22.65625 -0.753906 16.40625 -6.015625 C 10.15625 -11.273438 6.71875 -18.019531 6.09375 -26.25 L 26.5625 -27.1875 C 27.289062 -22.8125 29.035156 -19.425781 31.796875 -17.03125 C 34.554688 -14.632812 38.960938 -13.4375 45.015625 -13.4375 C 49.597656 -13.4375 53.140625 -14.191406 55.640625 -15.703125 C 58.140625 -17.210938 59.390625 -19.582031 59.390625 -22.8125 C 59.390625 -24.6875 58.945312 -26.25 58.0625 -27.5 C 57.175781 -28.75 55.484375 -29.867188 52.984375 -30.859375 C 50.484375 -31.847656 46.734375 -32.757812 41.734375 -33.59375 C 33.285156 -35.050781 26.691406 -36.847656 21.953125 -38.984375 C 17.210938 -41.128906 13.851562 -43.84375 11.875 -47.125 C 9.894531 -50.40625 8.90625 -54.390625 8.90625 -59.078125 C 8.90625 -66.785156 11.898438 -73.085938 17.890625 -77.984375 C 23.878906 -82.878906 32.660156 -85.328125 44.234375 -85.328125 C 52.253906 -85.328125 58.84375 -84.050781 64 -81.5 C 69.15625 -78.945312 73.0625 -75.5625 75.71875 -71.34375 C 78.375 -67.125 79.910156 -62.410156 80.328125 -57.203125 L 60.015625 -56.265625 C 59.804688 -60.222656 58.453125 -63.503906 55.953125 -66.109375 C 53.453125 -68.710938 49.441406 -70.015625 43.921875 -70.015625 C 39.117188 -70.015625 35.519531 -69.050781 33.125 -67.125 C 30.726562 -65.195312 29.53125 -62.722656 29.53125 -59.703125 C 29.53125 -56.367188 30.703125 -53.894531 33.046875 -52.28125 C 35.390625 -50.664062 39.691406 -49.335938 45.953125 -48.296875 C 54.597656 -47.046875 61.394531 -45.328125 66.34375 -43.140625 C 71.289062 -40.953125 74.832031 -38.238281 76.96875 -35 C 79.101562 -31.769531 80.171875 -27.8125 80.171875 -23.125 C 80.171875 -15.101562 76.96875 -8.929688 70.5625 -4.609375 C 64.15625 -0.285156 55.585938 1.875 44.859375 1.875 Z M 44.859375 1.875 "/></g></g></g></g></g></g></g></g></svg>