<svg xmlns="http://www.w3.org/2000/svg" xmlns:xlink="http://www.w3.org/1999/xlink" width="1366" zoomAndPan="magnify" viewBox="0 0 1024.5 576" height="768" preserveAspectRatio="xMidYMid meet" version="1.0"><defs><g/><clipPath id="3803789ae1"><path d="M 186.710938 194.410156 L 374.117188 194.410156 L 374.117188 381.820312 L 186.710938 381.820312 Z M 186.710938 194.410156 " clip-rule="nonzero"/></clipPath><clipPath id="132aba3acb"><path d="M 186.710938 194.410156 L 352 194.410156 L 352 381.820312 L 186.710938 381.820312 Z M 186.710938 194.410156 " clip-rule="nonzero"/></clipPath><clipPath id="6a07e81879"><path d="M 186.710938 194.410156 L 374.117188 194.410156 L 374.117188 360 L 186.710938 360 Z M 186.710938 194.410156 " clip-rule="nonzero"/></clipPath></defs><g fill="#060a0d" fill-opacity="1"><g transform="translate(370.771814, 343.672625)"><g><path d="M 12.53125 0 L 12.53125 -111.171875 L 32.875 -111.171875 L 32.875 -17.6875 L 85.640625 -17.6875 L 85.640625 0 Z M 12.53125 0 "/></g></g></g><g fill="#060a0d" fill-opacity="1"><g transform="translate(457.51689, 343.672625)"><g><path d="M 47.28125 1.875 C 39.039062 1.875 31.8125 0.078125 25.59375 -3.515625 C 19.382812 -7.117188 14.582031 -12.207031 11.1875 -18.78125 C 7.800781 -25.363281 6.109375 -33.039062 6.109375 -41.8125 C 6.109375 -50.675781 7.800781 -58.367188 11.1875 -64.890625 C 14.582031 -71.421875 19.382812 -76.484375 25.59375 -80.078125 C 31.8125 -83.679688 39.039062 -85.484375 47.28125 -85.484375 C 55.53125 -85.484375 62.734375 -83.679688 68.890625 -80.078125 C 75.046875 -76.484375 79.820312 -71.421875 83.21875 -64.890625 C 86.613281 -58.367188 88.3125 -50.675781 88.3125 -41.8125 C 88.3125 -33.039062 86.613281 -25.363281 83.21875 -18.78125 C 79.820312 -12.207031 75.046875 -7.117188 68.890625 -3.515625 C 62.734375 0.078125 55.53125 1.875 47.28125 1.875 Z M 47.28125 -14.40625 C 53.757812 -14.40625 58.742188 -16.804688 62.234375 -21.609375 C 65.734375 -26.410156 67.484375 -33.144531 67.484375 -41.8125 C 67.484375 -50.46875 65.734375 -57.195312 62.234375 -62 C 58.742188 -66.800781 53.757812 -69.203125 47.28125 -69.203125 C 40.8125 -69.203125 35.800781 -66.800781 32.25 -62 C 28.707031 -57.195312 26.9375 -50.46875 26.9375 -41.8125 C 26.9375 -33.144531 28.707031 -26.410156 32.25 -21.609375 C 35.800781 -16.804688 40.8125 -14.40625 47.28125 -14.40625 Z M 47.28125 -14.40625 "/></g></g></g><g fill="#060a0d" fill-opacity="1"><g transform="translate(550.368654, 343.672625)"><g><path d="M 47.28125 1.875 C 39.039062 1.875 31.8125 0.078125 25.59375 -3.515625 C 19.382812 -7.117188 14.582031 -12.207031 11.1875 -18.78125 C 7.800781 -25.363281 6.109375 -33.039062 6.109375 -41.8125 C 6.109375 -50.570312 7.800781 -58.238281 11.1875 -64.8125 C 14.582031 -71.394531 19.382812 -76.484375 25.59375 -80.078125 C 31.8125 -83.679688 39.039062 -85.484375 47.28125 -85.484375 C 57.820312 -85.484375 66.640625 -82.71875 73.734375 -77.1875 C 80.835938 -71.65625 85.019531 -63.929688 86.28125 -54.015625 L 65.609375 -52.921875 C 64.773438 -58.242188 62.738281 -62.285156 59.5 -65.046875 C 56.257812 -67.816406 52.1875 -69.203125 47.28125 -69.203125 C 40.8125 -69.203125 35.800781 -66.800781 32.25 -62 C 28.707031 -57.195312 26.9375 -50.46875 26.9375 -41.8125 C 26.9375 -33.144531 28.707031 -26.410156 32.25 -21.609375 C 35.800781 -16.804688 40.8125 -14.40625 47.28125 -14.40625 C 52.1875 -14.40625 56.285156 -15.835938 59.578125 -18.703125 C 62.867188 -21.578125 64.878906 -25.9375 65.609375 -31.78125 L 86.28125 -30.84375 C 85.539062 -24.164062 83.421875 -18.375 79.921875 -13.46875 C 76.429688 -8.5625 71.921875 -4.773438 66.390625 -2.109375 C 60.859375 0.546875 54.488281 1.875 47.28125 1.875 Z M 47.28125 1.875 "/></g></g></g><g fill="#060a0d" fill-opacity="1"><g transform="translate(639.619095, 343.672625)"><g><path d="M 38.515625 1.875 C 29.953125 1.875 23.21875 -0.914062 18.3125 -6.5 C 13.40625 -12.082031 10.953125 -19.832031 10.953125 -29.75 L 10.953125 -83.609375 L 31 -83.609375 L 31 -34.765625 C 31 -27.765625 32.171875 -22.617188 34.515625 -19.328125 C 36.867188 -16.046875 40.445312 -14.40625 45.25 -14.40625 C 50.675781 -14.40625 54.875 -16.203125 57.84375 -19.796875 C 60.820312 -23.398438 62.3125 -28.648438 62.3125 -35.546875 L 62.3125 -83.609375 L 82.359375 -83.609375 L 82.359375 0 L 64.046875 0 L 63.734375 -13.625 C 59.242188 -3.289062 50.835938 1.875 38.515625 1.875 Z M 38.515625 1.875 "/></g></g></g><g fill="#060a0d" fill-opacity="1"><g transform="translate(731.531356, 343.672625)"><g><path d="M 44.9375 1.875 C 32.195312 1.875 22.695312 -0.757812 16.4375 -6.03125 C 10.175781 -11.300781 6.734375 -18.0625 6.109375 -26.3125 L 26.625 -27.25 C 27.351562 -22.863281 29.097656 -19.46875 31.859375 -17.0625 C 34.628906 -14.664062 39.039062 -13.46875 45.09375 -13.46875 C 49.6875 -13.46875 53.234375 -14.222656 55.734375 -15.734375 C 58.242188 -17.242188 59.5 -19.617188 59.5 -22.859375 C 59.5 -24.734375 59.054688 -26.296875 58.171875 -27.546875 C 57.285156 -28.804688 55.585938 -29.929688 53.078125 -30.921875 C 50.578125 -31.910156 46.820312 -32.828125 41.8125 -33.671875 C 33.351562 -35.128906 26.75 -36.925781 22 -39.0625 C 17.25 -41.207031 13.878906 -43.921875 11.890625 -47.203125 C 9.910156 -50.492188 8.921875 -54.488281 8.921875 -59.1875 C 8.921875 -66.90625 11.921875 -73.21875 17.921875 -78.125 C 23.929688 -83.03125 32.726562 -85.484375 44.3125 -85.484375 C 52.351562 -85.484375 58.957031 -84.203125 64.125 -81.640625 C 69.289062 -79.085938 73.203125 -75.695312 75.859375 -71.46875 C 78.523438 -67.25 80.066406 -62.53125 80.484375 -57.3125 L 60.125 -56.375 C 59.914062 -60.332031 58.554688 -63.613281 56.046875 -66.21875 C 53.546875 -68.832031 49.53125 -70.140625 44 -70.140625 C 39.195312 -70.140625 35.59375 -69.175781 33.1875 -67.25 C 30.789062 -65.320312 29.59375 -62.84375 29.59375 -59.8125 C 29.59375 -56.46875 30.765625 -53.988281 33.109375 -52.375 C 35.460938 -50.757812 39.769531 -49.425781 46.03125 -48.375 C 54.695312 -47.125 61.507812 -45.398438 66.46875 -43.203125 C 71.425781 -41.015625 74.972656 -38.300781 77.109375 -35.0625 C 79.253906 -31.832031 80.328125 -27.867188 80.328125 -23.171875 C 80.328125 -15.128906 77.113281 -8.941406 70.6875 -4.609375 C 64.269531 -0.285156 55.6875 1.875 44.9375 1.875 Z M 44.9375 1.875 "/></g></g></g><g clip-path="url(#3803789ae1)"><path stroke-linecap="butt" transform="matrix(3.60401, 0, 0, 3.60401, 186.709335, 194.412068)" fill="none" stroke-linejoin="miter" d="M 40.940081 27.309541 C 40.902146 27.745254 40.844701 28.176631 40.768831 28.606924 C 40.692961 29.036133 40.598665 29.462091 40.485943 29.883714 C 40.372138 30.305336 40.24099 30.720455 40.091417 31.131239 C 39.942928 31.540939 39.776014 31.944135 39.590673 32.338661 C 39.406417 32.734271 39.204818 33.121209 38.986962 33.499477 C 38.769106 33.876661 38.533908 34.245174 38.283535 34.601765 C 38.034247 34.959439 37.768701 35.305191 37.487981 35.640105 C 37.20726 35.973934 36.91245 36.295841 36.604633 36.603658 C 36.295733 36.912559 35.973826 37.207369 35.639996 37.48809 C 35.305083 37.76881 34.959331 38.033272 34.60274 38.283644 C 34.245066 38.534016 33.877636 38.769215 33.499368 38.987071 C 33.121101 39.204927 32.734162 39.406525 32.339636 39.590782 C 31.944026 39.775038 31.54083 39.941953 31.13113 40.091526 C 30.720346 40.241099 30.305227 40.372246 29.883605 40.484968 C 29.461982 40.598774 29.036025 40.69307 28.606815 40.76894 C 28.176522 40.84481 27.745145 40.902255 27.310516 40.94019 " stroke="#04080c" stroke-width="5" stroke-opacity="1" stroke-miterlimit="4"/></g><g clip-path="url(#132aba3acb)"><path stroke-linecap="butt" transform="matrix(3.60401, 0, 0, 3.60401, 186.709335, 194.412068)" fill="none" stroke-linejoin="miter" d="M 17.399682 38.290147 C 17.042007 38.039775 16.696255 37.774229 16.361342 37.493509 C 16.027513 37.212789 15.705606 36.917978 15.396705 36.609077 C 15.087804 36.300177 14.792994 35.97827 14.512273 35.64444 C 14.231553 35.309527 13.966007 34.963775 13.715635 34.6061 C 13.465263 34.248426 13.231149 33.879913 13.012208 33.501645 C 12.794352 33.123377 12.592754 32.736438 12.408497 32.340829 C 12.223157 31.945219 12.056242 31.542022 11.907753 31.131239 C 11.75818 30.721539 11.627033 30.305336 11.514311 29.883714 C 11.400506 29.461007 11.30621 29.03505 11.230339 28.60584 C 11.154469 28.175547 11.098108 27.743086 11.060173 27.307374 C 11.022238 26.872745 11.002728 26.437032 11.002728 26.000236 C 11.002728 25.56344 11.022238 25.127727 11.060173 24.693098 C 11.098108 24.257386 11.155553 23.824925 11.231423 23.394632 C 11.307293 22.965422 11.401589 22.539464 11.515395 22.116758 C 11.628117 21.695136 11.759264 21.278933 11.908837 20.869233 C 12.05841 20.458449 12.225325 20.055253 12.409581 19.659643 " stroke="#04080c" stroke-width="5" stroke-opacity="1" stroke-miterlimit="4"/></g><g clip-path="url(#6a07e81879)"><path stroke-linecap="butt" transform="matrix(3.60401, 0, 0, 3.60401, 186.709335, 194.412068)" fill="none" stroke-linejoin="miter" d="M 19.659534 12.40969 C 20.056228 12.225433 20.458341 12.058519 20.869124 11.908946 C 21.279908 11.759373 21.695027 11.628225 22.117733 11.515504 C 22.539356 11.401698 22.965313 11.307402 23.394523 11.231532 C 23.824816 11.155662 24.257277 11.098217 24.692989 11.060282 C 25.127618 11.022347 25.563331 11.002837 26.000127 11.002837 C 26.436923 11.002837 26.872636 11.022347 27.307265 11.060282 C 27.742977 11.098217 28.175438 11.154578 28.605731 11.230448 C 29.036025 11.306318 29.461982 11.400614 29.883605 11.51442 C 30.305227 11.627142 30.72143 11.758289 31.13113 11.907862 C 31.541914 12.056351 31.94511 12.223266 32.34072 12.408606 C 32.73633 12.592863 33.123268 12.794461 33.501536 13.012317 C 33.879804 13.231257 34.248317 13.465372 34.605992 13.715744 C 34.963666 13.966116 35.309418 14.231662 35.644331 14.512382 C 35.978161 14.793103 36.300068 15.087913 36.608969 15.396814 C 36.917869 15.705714 37.21268 16.026538 37.4934 16.361451 C 37.77412 16.696364 38.039667 17.042116 38.290039 17.399791 " stroke="#04080c" stroke-width="5" stroke-opacity="1" stroke-miterlimit="4"/></g><path fill="#0d9373" d="M 298.433594 288.117188 C 298.433594 288.707031 298.40625 289.296875 298.347656 289.882812 C 298.289062 290.46875 298.203125 291.054688 298.085938 291.632812 C 297.972656 292.210938 297.828125 292.78125 297.65625 293.347656 C 297.488281 293.910156 297.289062 294.46875 297.0625 295.011719 C 296.835938 295.558594 296.585938 296.089844 296.304688 296.609375 C 296.027344 297.132812 295.722656 297.636719 295.398438 298.128906 C 295.070312 298.617188 294.71875 299.09375 294.34375 299.546875 C 293.96875 300.003906 293.574219 300.441406 293.15625 300.859375 C 292.738281 301.277344 292.300781 301.671875 291.84375 302.046875 C 291.390625 302.421875 290.914062 302.773438 290.425781 303.097656 C 289.933594 303.425781 289.429688 303.730469 288.90625 304.007812 C 288.386719 304.285156 287.855469 304.539062 287.308594 304.765625 C 286.765625 304.992188 286.210938 305.1875 285.644531 305.359375 C 285.078125 305.53125 284.507812 305.675781 283.929688 305.789062 C 283.351562 305.90625 282.765625 305.992188 282.179688 306.050781 C 281.59375 306.109375 281.003906 306.136719 280.414062 306.136719 C 279.824219 306.136719 279.234375 306.109375 278.648438 306.050781 C 278.058594 305.992188 277.476562 305.90625 276.898438 305.789062 C 276.320312 305.675781 275.746094 305.53125 275.183594 305.359375 C 274.617188 305.1875 274.0625 304.992188 273.519531 304.765625 C 272.972656 304.539062 272.441406 304.285156 271.917969 304.007812 C 271.398438 303.730469 270.894531 303.425781 270.402344 303.097656 C 269.910156 302.773438 269.4375 302.421875 268.980469 302.046875 C 268.527344 301.671875 268.089844 301.277344 267.671875 300.859375 C 267.253906 300.441406 266.859375 300.003906 266.484375 299.546875 C 266.109375 299.09375 265.757812 298.617188 265.429688 298.128906 C 265.101562 297.636719 264.800781 297.132812 264.519531 296.609375 C 264.242188 296.089844 263.992188 295.558594 263.765625 295.011719 C 263.539062 294.46875 263.339844 293.910156 263.167969 293.347656 C 263 292.78125 262.855469 292.210938 262.738281 291.632812 C 262.625 291.054688 262.539062 290.46875 262.480469 289.882812 C 262.421875 289.296875 262.394531 288.707031 262.394531 288.117188 C 262.394531 287.527344 262.421875 286.9375 262.480469 286.351562 C 262.539062 285.761719 262.625 285.179688 262.738281 284.601562 C 262.855469 284.023438 263 283.449219 263.167969 282.886719 C 263.339844 282.320312 263.539062 281.765625 263.765625 281.21875 C 263.992188 280.675781 264.242188 280.140625 264.519531 279.621094 C 264.800781 279.101562 265.101562 278.59375 265.429688 278.105469 C 265.757812 277.613281 266.109375 277.140625 266.484375 276.683594 C 266.859375 276.226562 267.253906 275.792969 267.671875 275.375 C 268.089844 274.957031 268.527344 274.5625 268.980469 274.1875 C 269.4375 273.8125 269.910156 273.460938 270.402344 273.132812 C 270.894531 272.804688 271.398438 272.503906 271.917969 272.222656 C 272.441406 271.945312 272.972656 271.695312 273.519531 271.46875 C 274.0625 271.242188 274.617188 271.042969 275.183594 270.871094 C 275.746094 270.699219 276.320312 270.558594 276.898438 270.441406 C 277.476562 270.328125 278.058594 270.242188 278.648438 270.183594 C 279.234375 270.125 279.824219 270.097656 280.414062 270.097656 C 281.003906 270.097656 281.59375 270.125 282.179688 270.183594 C 282.765625 270.242188 283.351562 270.328125 283.929688 270.441406 C 284.507812 270.558594 285.078125 270.699219 285.644531 270.871094 C 286.210938 271.042969 286.765625 271.242188 287.308594 271.46875 C 287.855469 271.695312 288.386719 271.945312 288.90625 272.222656 C 289.429688 272.503906 289.933594 272.804688 290.425781 273.132812 C 290.914062 273.460938 291.390625 273.8125 291.84375 274.1875 C 292.300781 274.5625 292.738281 274.957031 293.15625 275.375 C 293.574219 275.792969 293.96875 276.226562 294.34375 276.683594 C 294.71875 277.140625 295.070312 277.613281 295.398438 278.105469 C 295.722656 278.59375 296.027344 279.101562 296.304688 279.621094 C 296.585938 280.140625 296.835938 280.675781 297.0625 281.21875 C 297.289062 281.765625 297.488281 282.320312 297.65625 282.886719 C 297.828125 283.449219 297.972656 284.023438 298.085938 284.601562 C 298.203125 285.179688 298.289062 285.761719 298.347656 286.351562 C 298.40625 286.9375 298.433594 287.527344 298.433594 288.117188 Z M 298.433594 288.117188 " fill-opacity="1" fill-rule="nonzero"/></svg>