<svg xmlns="http://www.w3.org/2000/svg" xmlns:xlink="http://www.w3.org/1999/xlink" width="1366" zoomAndPan="magnify" viewBox="0 0 1024.5 576" height="768" preserveAspectRatio="xMidYMid meet" version="1.0"><defs><g/><clipPath id="023c7ce5c4"><path d="M 0.335938 10.007812 L 187.769531 10.007812 L 187.769531 197.445312 L 0.335938 197.445312 Z M 0.335938 10.007812 " clip-rule="nonzero"/></clipPath><clipPath id="fc78fa0082"><path d="M 0.335938 10.007812 L 166 10.007812 L 166 197.445312 L 0.335938 197.445312 Z M 0.335938 10.007812 " clip-rule="nonzero"/></clipPath><clipPath id="d76395235e"><path d="M 0.335938 10.007812 L 187.769531 10.007812 L 187.769531 175 L 0.335938 175 Z M 0.335938 10.007812 " clip-rule="nonzero"/></clipPath><clipPath id="1b667575cb"><rect x="0" width="618" y="0" height="206"/></clipPath></defs><g transform="matrix(1, 0, 0, 1, 194, 184)"><g clip-path="url(#1b667575cb)"><g clip-path="url(#023c7ce5c4)"><path stroke-linecap="butt" transform="matrix(3.604501, 0, 0, 3.604501, 0.335353, 10.009506)" fill="none" stroke-linejoin="miter" d="M 40.939647 27.31022 C 40.901717 27.74479 40.84428 28.177192 40.76842 28.606343 C 40.69256 29.036578 40.598277 29.462478 40.48557 29.884042 C 40.372864 30.304524 40.240651 30.72067 40.092182 31.131398 C 39.942629 31.541042 39.775737 31.944184 39.591506 32.338656 C 39.406191 32.734212 39.205703 33.121098 38.986793 33.499314 C 38.768966 33.877531 38.534884 34.24491 38.284546 34.602536 C 38.034208 34.960161 37.768698 35.305866 37.488016 35.63965 C 37.207334 35.974518 36.912563 36.295298 36.603705 36.604156 C 36.29593 36.913015 35.974067 37.207785 35.640283 37.487384 C 35.305415 37.768066 34.95971 38.033576 34.602084 38.283914 C 34.244458 38.534252 33.877079 38.768334 33.498863 38.987245 C 33.12173 39.205071 32.734844 39.406642 32.339288 39.590874 C 31.943732 39.775105 31.54059 39.941997 31.130946 40.09155 C 30.721302 40.241102 30.305156 40.372232 29.883591 40.484938 C 29.462026 40.598728 29.036126 40.693011 28.606975 40.768871 C 28.17674 40.844731 27.744338 40.902168 27.309769 40.940098 " stroke="#ffffff" stroke-width="5" stroke-opacity="1" stroke-miterlimit="4"/></g><g clip-path="url(#fc78fa0082)"><path stroke-linecap="butt" transform="matrix(3.604501, 0, 0, 3.604501, 0.335353, 10.009506)" fill="none" stroke-linejoin="miter" d="M 17.400283 38.290416 C 17.042657 38.040078 16.695869 37.773484 16.362084 37.492802 C 16.027217 37.21212 15.705353 36.91735 15.396495 36.609575 C 15.087636 36.300716 14.792866 35.978853 14.512184 35.643985 C 14.231502 35.309118 13.965992 34.963413 13.715654 34.605787 C 13.465315 34.248161 13.231233 33.879698 13.012323 33.501482 C 12.794496 33.123265 12.592925 32.736379 12.408694 32.340823 C 12.223379 31.945268 12.056487 31.542126 11.906934 31.131398 C 11.758465 30.721754 11.627336 30.305607 11.513546 29.882959 C 11.400839 29.461394 11.306556 29.035494 11.230696 28.605259 C 11.154836 28.175025 11.098483 27.742623 11.060553 27.308053 C 11.021539 26.8724 11.003116 26.436746 11.003116 26.00001 C 11.003116 25.563273 11.022623 25.127619 11.060553 24.69305 C 11.098483 24.257397 11.15592 23.824994 11.23178 23.39476 C 11.30764 22.964525 11.401923 22.538625 11.514629 22.11706 C 11.628419 21.695495 11.759549 21.279349 11.909101 20.868621 C 12.058654 20.458977 12.225546 20.055835 12.409777 19.660279 " stroke="#ffffff" stroke-width="5" stroke-opacity="1" stroke-miterlimit="4"/></g><g clip-path="url(#d76395235e)"><path stroke-linecap="butt" transform="matrix(3.604501, 0, 0, 3.604501, 0.335353, 10.009506)" fill="none" stroke-linejoin="miter" d="M 19.659828 12.410229 C 20.055384 12.224914 20.458525 12.058022 20.869253 11.908469 C 21.278897 11.758917 21.695044 11.627787 22.117692 11.515081 C 22.539257 11.402375 22.965157 11.307008 23.395392 11.231148 C 23.824543 11.155288 24.258029 11.098934 24.692598 11.059921 C 25.127168 11.021991 25.563905 11.003568 26.000642 11.003568 C 26.437379 11.003568 26.873032 11.021991 27.307601 11.059921 C 27.743255 11.097851 28.175657 11.155288 28.605891 11.231148 C 29.035042 11.307008 29.460942 11.401291 29.883591 11.513997 C 30.305156 11.626703 30.721302 11.757833 31.13203 11.907386 C 31.541674 12.056938 31.944816 12.22383 32.340372 12.408062 C 32.737011 12.592293 33.123897 12.793864 33.502114 13.012774 C 33.88033 13.230601 34.247709 13.464683 34.605335 13.716105 C 34.962961 13.966443 35.30975 14.231953 35.643534 14.512635 C 35.978402 14.793317 36.300265 15.088088 36.609123 15.396946 C 36.917982 15.705805 37.212752 16.026585 37.493434 16.361452 C 37.774117 16.69632 38.039627 17.042025 38.289965 17.399651 " stroke="#ffffff" stroke-width="5" stroke-opacity="1" stroke-miterlimit="4"/></g><path fill="#0d9373" d="M 112.074219 103.726562 C 112.074219 104.316406 112.046875 104.90625 111.988281 105.492188 C 111.929688 106.082031 111.84375 106.664062 111.730469 107.242188 C 111.613281 107.820312 111.46875 108.394531 111.300781 108.957031 C 111.128906 109.523438 110.929688 110.078125 110.703125 110.625 C 110.476562 111.167969 110.226562 111.703125 109.945312 112.222656 C 109.667969 112.742188 109.367188 113.25 109.039062 113.738281 C 108.710938 114.230469 108.359375 114.703125 107.984375 115.160156 C 107.609375 115.617188 107.214844 116.054688 106.796875 116.46875 C 106.378906 116.886719 105.941406 117.285156 105.484375 117.65625 C 105.03125 118.03125 104.554688 118.382812 104.066406 118.710938 C 103.574219 119.039062 103.070312 119.34375 102.546875 119.621094 C 102.027344 119.898438 101.496094 120.152344 100.949219 120.378906 C 100.402344 120.601562 99.847656 120.800781 99.285156 120.972656 C 98.71875 121.144531 98.148438 121.289062 97.570312 121.402344 C 96.988281 121.519531 96.40625 121.605469 95.820312 121.664062 C 95.230469 121.71875 94.644531 121.75 94.050781 121.75 C 93.460938 121.75 92.875 121.71875 92.285156 121.664062 C 91.699219 121.605469 91.117188 121.519531 90.535156 121.402344 C 89.957031 121.289062 89.386719 121.144531 88.820312 120.972656 C 88.257812 120.800781 87.699219 120.601562 87.15625 120.378906 C 86.609375 120.152344 86.078125 119.898438 85.554688 119.621094 C 85.035156 119.34375 84.53125 119.039062 84.039062 118.710938 C 83.546875 118.382812 83.074219 118.03125 82.617188 117.65625 C 82.164062 117.285156 81.726562 116.886719 81.308594 116.46875 C 80.890625 116.054688 80.496094 115.617188 80.121094 115.160156 C 79.746094 114.703125 79.394531 114.230469 79.066406 113.738281 C 78.738281 113.25 78.4375 112.742188 78.15625 112.222656 C 77.878906 111.703125 77.628906 111.167969 77.402344 110.625 C 77.175781 110.078125 76.976562 109.523438 76.804688 108.957031 C 76.632812 108.394531 76.492188 107.820312 76.375 107.242188 C 76.261719 106.664062 76.175781 106.082031 76.117188 105.492188 C 76.058594 104.90625 76.03125 104.316406 76.03125 103.726562 C 76.03125 103.136719 76.058594 102.546875 76.117188 101.960938 C 76.175781 101.371094 76.261719 100.789062 76.375 100.210938 C 76.492188 99.632812 76.632812 99.058594 76.804688 98.496094 C 76.976562 97.929688 77.175781 97.375 77.402344 96.828125 C 77.628906 96.285156 77.878906 95.75 78.15625 95.230469 C 78.4375 94.710938 78.738281 94.203125 79.066406 93.714844 C 79.394531 93.222656 79.746094 92.75 80.121094 92.292969 C 80.496094 91.835938 80.890625 91.398438 81.308594 90.984375 C 81.726562 90.566406 82.164062 90.167969 82.617188 89.796875 C 83.074219 89.421875 83.546875 89.070312 84.039062 88.742188 C 84.53125 88.414062 85.035156 88.109375 85.554688 87.832031 C 86.078125 87.554688 86.609375 87.300781 87.15625 87.074219 C 87.699219 86.851562 88.257812 86.652344 88.820312 86.480469 C 89.386719 86.308594 89.957031 86.164062 90.535156 86.050781 C 91.117188 85.933594 91.699219 85.847656 92.285156 85.789062 C 92.875 85.734375 93.460938 85.703125 94.050781 85.703125 C 94.644531 85.703125 95.230469 85.734375 95.820312 85.789062 C 96.40625 85.847656 96.988281 85.933594 97.570312 86.050781 C 98.148438 86.164062 98.71875 86.308594 99.285156 86.480469 C 99.847656 86.652344 100.402344 86.851562 100.949219 87.074219 C 101.496094 87.300781 102.027344 87.554688 102.546875 87.832031 C 103.070312 88.109375 103.574219 88.414062 104.066406 88.742188 C 104.554688 89.070312 105.03125 89.421875 105.484375 89.796875 C 105.941406 90.167969 106.378906 90.566406 106.796875 90.984375 C 107.214844 91.398438 107.609375 91.835938 107.984375 92.292969 C 108.359375 92.75 108.710938 93.222656 109.039062 93.714844 C 109.367188 94.203125 109.667969 94.710938 109.945312 95.230469 C 110.226562 95.75 110.476562 96.285156 110.703125 96.828125 C 110.929688 97.375 111.128906 97.929688 111.300781 98.496094 C 111.46875 99.058594 111.613281 99.632812 111.730469 100.210938 C 111.84375 100.789062 111.929688 101.371094 111.988281 101.960938 C 112.046875 102.546875 112.074219 103.136719 112.074219 103.726562 Z M 112.074219 103.726562 " fill-opacity="1" fill-rule="nonzero"/><g fill="#ffffff" fill-opacity="1"><g transform="translate(189.264361, 158.35588)"><g><path d="M 14.375 0 L 14.375 -110.953125 L 27.8125 -110.953125 L 27.8125 -13.125 L 83.296875 -13.125 L 83.296875 0 Z M 14.375 0 "/></g></g></g><g fill="#ffffff" fill-opacity="1"><g transform="translate(273.807738, 158.35588)"><g><path d="M 44.859375 1.875 C 37.242188 1.875 30.570312 0.101562 24.84375 -3.4375 C 19.113281 -6.976562 14.6875 -12.003906 11.5625 -18.515625 C 8.4375 -25.023438 6.875 -32.660156 6.875 -41.421875 C 6.875 -50.273438 8.4375 -57.929688 11.5625 -64.390625 C 14.6875 -70.847656 19.113281 -75.847656 24.84375 -79.390625 C 30.570312 -82.929688 37.242188 -84.703125 44.859375 -84.703125 C 52.460938 -84.703125 59.101562 -82.929688 64.78125 -79.390625 C 70.457031 -75.847656 74.859375 -70.847656 77.984375 -64.390625 C 81.109375 -57.929688 82.671875 -50.273438 82.671875 -41.421875 C 82.671875 -32.660156 81.109375 -25.023438 77.984375 -18.515625 C 74.859375 -12.003906 70.457031 -6.976562 64.78125 -3.4375 C 59.101562 0.101562 52.460938 1.875 44.859375 1.875 Z M 44.859375 -10.625 C 52.460938 -10.625 58.375 -13.359375 62.59375 -18.828125 C 66.8125 -24.296875 68.921875 -31.828125 68.921875 -41.421875 C 68.921875 -51.003906 66.8125 -58.53125 62.59375 -64 C 58.375 -69.46875 52.460938 -72.203125 44.859375 -72.203125 C 37.242188 -72.203125 31.300781 -69.46875 27.03125 -64 C 22.757812 -58.53125 20.625 -51.003906 20.625 -41.421875 C 20.625 -31.828125 22.757812 -24.296875 27.03125 -18.828125 C 31.300781 -13.359375 37.242188 -10.625 44.859375 -10.625 Z M 44.859375 -10.625 "/></g></g></g><g fill="#ffffff" fill-opacity="1"><g transform="translate(361.789398, 158.35588)"><g><path d="M 44.859375 1.875 C 37.140625 1.875 30.441406 0.101562 24.765625 -3.4375 C 19.085938 -6.976562 14.6875 -12.003906 11.5625 -18.515625 C 8.4375 -25.023438 6.875 -32.660156 6.875 -41.421875 C 6.875 -50.171875 8.4375 -57.773438 11.5625 -64.234375 C 14.6875 -70.691406 19.085938 -75.71875 24.765625 -79.3125 C 30.441406 -82.90625 37.140625 -84.703125 44.859375 -84.703125 C 54.441406 -84.703125 62.359375 -82.226562 68.609375 -77.28125 C 74.859375 -72.332031 78.660156 -65.222656 80.015625 -55.953125 L 66.265625 -55.015625 C 65.328125 -60.535156 62.929688 -64.78125 59.078125 -67.75 C 55.222656 -70.71875 50.484375 -72.203125 44.859375 -72.203125 C 37.242188 -72.203125 31.300781 -69.46875 27.03125 -64 C 22.757812 -58.53125 20.625 -51.003906 20.625 -41.421875 C 20.625 -31.828125 22.757812 -24.296875 27.03125 -18.828125 C 31.300781 -13.359375 37.242188 -10.625 44.859375 -10.625 C 50.484375 -10.625 55.222656 -12.1875 59.078125 -15.3125 C 62.929688 -18.4375 65.328125 -23.125 66.265625 -29.375 L 80.015625 -28.4375 C 78.660156 -19.269531 74.859375 -11.925781 68.609375 -6.40625 C 62.359375 -0.882812 54.441406 1.875 44.859375 1.875 Z M 44.859375 1.875 "/></g></g></g><g fill="#ffffff" fill-opacity="1"><g transform="translate(445.551676, 158.35588)"><g><path d="M 39.703125 1.875 C 31.460938 1.875 24.867188 -0.910156 19.921875 -6.484375 C 14.972656 -12.054688 12.5 -19.738281 12.5 -29.53125 L 12.5 -82.828125 L 25.625 -82.828125 L 25.625 -33.125 C 25.625 -25.101562 27.054688 -19.191406 29.921875 -15.390625 C 32.785156 -11.585938 37.191406 -9.6875 43.140625 -9.6875 C 49.703125 -9.6875 54.859375 -11.796875 58.609375 -16.015625 C 62.359375 -20.234375 64.234375 -26.039062 64.234375 -33.4375 L 64.234375 -82.828125 L 77.359375 -82.828125 L 77.359375 0 L 64.859375 0 L 64.859375 -13.4375 C 62.566406 -8.539062 59.285156 -4.765625 55.015625 -2.109375 C 50.742188 0.546875 45.640625 1.875 39.703125 1.875 Z M 39.703125 1.875 "/></g></g></g><g fill="#ffffff" fill-opacity="1"><g transform="translate(533.845881, 158.35588)"><g><path d="M 42.671875 1.875 C 31.304688 1.875 22.65625 -0.753906 16.71875 -6.015625 C 10.78125 -11.273438 7.5 -17.96875 6.875 -26.09375 L 20.625 -27.03125 C 21.457031 -22.03125 23.515625 -18.046875 26.796875 -15.078125 C 30.078125 -12.109375 35.367188 -10.625 42.671875 -10.625 C 48.296875 -10.625 52.644531 -11.535156 55.71875 -13.359375 C 58.789062 -15.179688 60.328125 -18.125 60.328125 -22.1875 C 60.328125 -24.375 59.832031 -26.195312 58.84375 -27.65625 C 57.851562 -29.113281 55.898438 -30.390625 52.984375 -31.484375 C 50.066406 -32.578125 45.796875 -33.644531 40.171875 -34.6875 C 32.453125 -36.144531 26.40625 -37.96875 22.03125 -40.15625 C 17.65625 -42.351562 14.582031 -45.015625 12.8125 -48.140625 C 11.039062 -51.265625 10.15625 -55.015625 10.15625 -59.390625 C 10.15625 -66.785156 12.890625 -72.851562 18.359375 -77.59375 C 23.828125 -82.332031 31.566406 -84.703125 41.578125 -84.703125 C 48.867188 -84.703125 54.832031 -83.425781 59.46875 -80.875 C 64.101562 -78.320312 67.617188 -75.015625 70.015625 -70.953125 C 72.410156 -66.890625 73.867188 -62.617188 74.390625 -58.140625 L 60.640625 -57.203125 C 60.222656 -61.160156 58.582031 -64.648438 55.71875 -67.671875 C 52.851562 -70.691406 48.035156 -72.203125 41.265625 -72.203125 C 35.316406 -72.203125 30.9375 -71.054688 28.125 -68.765625 C 25.3125 -66.472656 23.90625 -63.554688 23.90625 -60.015625 C 23.90625 -55.953125 25.207031 -52.957031 27.8125 -51.03125 C 30.414062 -49.101562 35.367188 -47.515625 42.671875 -46.265625 C 50.796875 -44.910156 57.148438 -43.1875 61.734375 -41.09375 C 66.316406 -39.007812 69.519531 -36.429688 71.34375 -33.359375 C 73.164062 -30.285156 74.078125 -26.5625 74.078125 -22.1875 C 74.078125 -14.582031 71.132812 -8.671875 65.25 -4.453125 C 59.363281 -0.234375 51.835938 1.875 42.671875 1.875 Z M 42.671875 1.875 "/></g></g></g></g></g></svg>