<svg xmlns="http://www.w3.org/2000/svg" xmlns:xlink="http://www.w3.org/1999/xlink" width="1366" zoomAndPan="magnify" viewBox="0 0 1024.5 576" height="768" preserveAspectRatio="xMidYMid meet" version="1.0"><defs><g/><clipPath id="83279a3290"><rect x="0" width="432" y="0" height="206"/></clipPath><clipPath id="c6658c04be"><path d="M 186.710938 194.410156 L 374.117188 194.410156 L 374.117188 381.820312 L 186.710938 381.820312 Z M 186.710938 194.410156 " clip-rule="nonzero"/></clipPath><clipPath id="888ba6b467"><path d="M 186.710938 194.410156 L 352 194.410156 L 352 381.820312 L 186.710938 381.820312 Z M 186.710938 194.410156 " clip-rule="nonzero"/></clipPath><clipPath id="e7949242b2"><path d="M 186.710938 194.410156 L 374.117188 194.410156 L 374.117188 360 L 186.710938 360 Z M 186.710938 194.410156 " clip-rule="nonzero"/></clipPath></defs><g transform="matrix(1, 0, 0, 1, 369, 185)"><g clip-path="url(#83279a3290)"><g fill="#060a0d" fill-opacity="1"><g transform="translate(2.782493, 158.042805)"><g><path d="M 14.40625 0 L 14.40625 -111.171875 L 27.875 -111.171875 L 27.875 -13.15625 L 83.453125 -13.15625 L 83.453125 0 Z M 14.40625 0 "/></g></g></g><g fill="#060a0d" fill-opacity="1"><g transform="translate(87.488315, 158.042805)"><g><path d="M 44.9375 1.875 C 37.3125 1.875 30.628906 0.101562 24.890625 -3.4375 C 19.148438 -6.988281 14.710938 -12.023438 11.578125 -18.546875 C 8.453125 -25.078125 6.890625 -32.726562 6.890625 -41.5 C 6.890625 -50.363281 8.453125 -58.03125 11.578125 -64.5 C 14.710938 -70.976562 19.148438 -75.988281 24.890625 -79.53125 C 30.628906 -83.082031 37.3125 -84.859375 44.9375 -84.859375 C 52.5625 -84.859375 59.21875 -83.082031 64.90625 -79.53125 C 70.59375 -75.988281 75 -70.976562 78.125 -64.5 C 81.257812 -58.03125 82.828125 -50.363281 82.828125 -41.5 C 82.828125 -32.726562 81.257812 -25.078125 78.125 -18.546875 C 75 -12.023438 70.59375 -6.988281 64.90625 -3.4375 C 59.21875 0.101562 52.5625 1.875 44.9375 1.875 Z M 44.9375 -10.640625 C 52.5625 -10.640625 58.484375 -13.378906 62.703125 -18.859375 C 66.929688 -24.347656 69.046875 -31.894531 69.046875 -41.5 C 69.046875 -51.09375 66.929688 -58.628906 62.703125 -64.109375 C 58.484375 -69.597656 52.5625 -72.34375 44.9375 -72.34375 C 37.3125 -72.34375 31.359375 -69.597656 27.078125 -64.109375 C 22.804688 -58.628906 20.671875 -51.09375 20.671875 -41.5 C 20.671875 -31.894531 22.804688 -24.347656 27.078125 -18.859375 C 31.359375 -13.378906 37.3125 -10.640625 44.9375 -10.640625 Z M 44.9375 -10.640625 "/></g></g></g><g fill="#060a0d" fill-opacity="1"><g transform="translate(175.639025, 158.042805)"><g><path d="M 44.9375 1.875 C 37.207031 1.875 30.5 0.101562 24.8125 -3.4375 C 19.125 -6.988281 14.710938 -12.023438 11.578125 -18.546875 C 8.453125 -25.078125 6.890625 -32.726562 6.890625 -41.5 C 6.890625 -50.257812 8.453125 -57.875 11.578125 -64.34375 C 14.710938 -70.820312 19.125 -75.859375 24.8125 -79.453125 C 30.5 -83.054688 37.207031 -84.859375 44.9375 -84.859375 C 54.539062 -84.859375 62.472656 -82.378906 68.734375 -77.421875 C 74.992188 -72.460938 78.804688 -65.34375 80.171875 -56.0625 L 66.390625 -55.109375 C 65.453125 -60.648438 63.050781 -64.90625 59.1875 -67.875 C 55.320312 -70.851562 50.570312 -72.34375 44.9375 -72.34375 C 37.3125 -72.34375 31.359375 -69.597656 27.078125 -64.109375 C 22.804688 -58.628906 20.671875 -51.09375 20.671875 -41.5 C 20.671875 -31.894531 22.804688 -24.347656 27.078125 -18.859375 C 31.359375 -13.378906 37.3125 -10.640625 44.9375 -10.640625 C 50.570312 -10.640625 55.320312 -12.207031 59.1875 -15.34375 C 63.050781 -18.476562 65.453125 -23.175781 66.390625 -29.4375 L 80.171875 -28.5 C 78.804688 -19.3125 74.992188 -11.953125 68.734375 -6.421875 C 62.472656 -0.890625 54.539062 1.875 44.9375 1.875 Z M 44.9375 1.875 "/></g></g></g><g fill="#060a0d" fill-opacity="1"><g transform="translate(259.562246, 158.042805)"><g><path d="M 39.765625 1.875 C 31.523438 1.875 24.925781 -0.914062 19.96875 -6.5 C 15.007812 -12.082031 12.53125 -19.78125 12.53125 -29.59375 L 12.53125 -82.984375 L 25.671875 -82.984375 L 25.671875 -33.1875 C 25.671875 -25.15625 27.109375 -19.234375 29.984375 -15.421875 C 32.859375 -11.609375 37.269531 -9.703125 43.21875 -9.703125 C 49.789062 -9.703125 54.957031 -11.816406 58.71875 -16.046875 C 62.476562 -20.273438 64.359375 -26.09375 64.359375 -33.5 L 64.359375 -82.984375 L 77.5 -82.984375 L 77.5 0 L 64.984375 0 L 64.984375 -13.46875 C 62.679688 -8.5625 59.390625 -4.773438 55.109375 -2.109375 C 50.835938 0.546875 45.722656 1.875 39.765625 1.875 Z M 39.765625 1.875 "/></g></g></g><g fill="#060a0d" fill-opacity="1"><g transform="translate(348.026101, 158.042805)"><g><path d="M 42.75 1.875 C 31.363281 1.875 22.695312 -0.757812 16.75 -6.03125 C 10.800781 -11.300781 7.515625 -18.007812 6.890625 -26.15625 L 20.671875 -27.09375 C 21.503906 -22.082031 23.5625 -18.085938 26.84375 -15.109375 C 30.132812 -12.128906 35.4375 -10.640625 42.75 -10.640625 C 48.382812 -10.640625 52.738281 -11.550781 55.8125 -13.375 C 58.894531 -15.207031 60.4375 -18.160156 60.4375 -22.234375 C 60.4375 -24.421875 59.941406 -26.242188 58.953125 -27.703125 C 57.960938 -29.171875 56.003906 -30.453125 53.078125 -31.546875 C 50.160156 -32.640625 45.878906 -33.710938 40.234375 -34.765625 C 32.515625 -36.222656 26.460938 -38.046875 22.078125 -40.234375 C 17.691406 -42.429688 14.609375 -45.09375 12.828125 -48.21875 C 11.054688 -51.351562 10.171875 -55.113281 10.171875 -59.5 C 10.171875 -66.90625 12.910156 -72.984375 18.390625 -77.734375 C 23.878906 -82.484375 31.632812 -84.859375 41.65625 -84.859375 C 48.957031 -84.859375 54.929688 -83.578125 59.578125 -81.015625 C 64.222656 -78.460938 67.742188 -75.148438 70.140625 -71.078125 C 72.546875 -67.015625 74.007812 -62.738281 74.53125 -58.25 L 60.75 -57.3125 C 60.332031 -61.269531 58.6875 -64.765625 55.8125 -67.796875 C 52.945312 -70.828125 48.125 -72.34375 41.34375 -72.34375 C 35.382812 -72.34375 30.992188 -71.191406 28.171875 -68.890625 C 25.359375 -66.597656 23.953125 -63.675781 23.953125 -60.125 C 23.953125 -56.050781 25.253906 -53.046875 27.859375 -51.109375 C 30.472656 -49.179688 35.4375 -47.59375 42.75 -46.34375 C 50.882812 -44.988281 57.25 -43.265625 61.84375 -41.171875 C 66.4375 -39.085938 69.644531 -36.503906 71.46875 -33.421875 C 73.300781 -30.347656 74.21875 -26.617188 74.21875 -22.234375 C 74.21875 -14.609375 71.269531 -8.679688 65.375 -4.453125 C 59.476562 -0.234375 51.9375 1.875 42.75 1.875 Z M 42.75 1.875 "/></g></g></g></g></g><g clip-path="url(#c6658c04be)"><path stroke-linecap="butt" transform="matrix(3.60401, 0, 0, 3.60401, 186.709335, 194.412068)" fill="none" stroke-linejoin="miter" d="M 40.940081 27.309541 C 40.902146 27.745254 40.844701 28.176631 40.768831 28.606924 C 40.692961 29.036133 40.598665 29.462091 40.485943 29.883714 C 40.372138 30.305336 40.24099 30.720455 40.091417 31.131239 C 39.942928 31.540939 39.776014 31.944135 39.590673 32.338661 C 39.406417 32.734271 39.204818 33.121209 38.986962 33.499477 C 38.769106 33.876661 38.533908 34.245174 38.283535 34.601765 C 38.034247 34.959439 37.768701 35.305191 37.487981 35.640105 C 37.20726 35.973934 36.91245 36.295841 36.604633 36.603658 C 36.295733 36.912559 35.973826 37.207369 35.639996 37.48809 C 35.305083 37.76881 34.959331 38.033272 34.60274 38.283644 C 34.245066 38.534016 33.877636 38.769215 33.499368 38.987071 C 33.121101 39.204927 32.734162 39.406525 32.339636 39.590782 C 31.944026 39.775038 31.54083 39.941953 31.13113 40.091526 C 30.720346 40.241099 30.305227 40.372246 29.883605 40.484968 C 29.461982 40.598774 29.036025 40.69307 28.606815 40.76894 C 28.176522 40.84481 27.745145 40.902255 27.310516 40.94019 " stroke="#04080c" stroke-width="5" stroke-opacity="1" stroke-miterlimit="4"/></g><g clip-path="url(#888ba6b467)"><path stroke-linecap="butt" transform="matrix(3.60401, 0, 0, 3.60401, 186.709335, 194.412068)" fill="none" stroke-linejoin="miter" d="M 17.399682 38.290147 C 17.042007 38.039775 16.696255 37.774229 16.361342 37.493509 C 16.027513 37.212789 15.705606 36.917978 15.396705 36.609077 C 15.087804 36.300177 14.792994 35.97827 14.512273 35.64444 C 14.231553 35.309527 13.966007 34.963775 13.715635 34.6061 C 13.465263 34.248426 13.231149 33.879913 13.012208 33.501645 C 12.794352 33.123377 12.592754 32.736438 12.408497 32.340829 C 12.223157 31.945219 12.056242 31.542022 11.907753 31.131239 C 11.75818 30.721539 11.627033 30.305336 11.514311 29.883714 C 11.400506 29.461007 11.30621 29.03505 11.230339 28.60584 C 11.154469 28.175547 11.098108 27.743086 11.060173 27.307374 C 11.022238 26.872745 11.002728 26.437032 11.002728 26.000236 C 11.002728 25.56344 11.022238 25.127727 11.060173 24.693098 C 11.098108 24.257386 11.155553 23.824925 11.231423 23.394632 C 11.307293 22.965422 11.401589 22.539464 11.515395 22.116758 C 11.628117 21.695136 11.759264 21.278933 11.908837 20.869233 C 12.05841 20.458449 12.225325 20.055253 12.409581 19.659643 " stroke="#04080c" stroke-width="5" stroke-opacity="1" stroke-miterlimit="4"/></g><g clip-path="url(#e7949242b2)"><path stroke-linecap="butt" transform="matrix(3.60401, 0, 0, 3.60401, 186.709335, 194.412068)" fill="none" stroke-linejoin="miter" d="M 19.659534 12.40969 C 20.056228 12.225433 20.458341 12.058519 20.869124 11.908946 C 21.279908 11.759373 21.695027 11.628225 22.117733 11.515504 C 22.539356 11.401698 22.965313 11.307402 23.394523 11.231532 C 23.824816 11.155662 24.257277 11.098217 24.692989 11.060282 C 25.127618 11.022347 25.563331 11.002837 26.000127 11.002837 C 26.436923 11.002837 26.872636 11.022347 27.307265 11.060282 C 27.742977 11.098217 28.175438 11.154578 28.605731 11.230448 C 29.036025 11.306318 29.461982 11.400614 29.883605 11.51442 C 30.305227 11.627142 30.72143 11.758289 31.13113 11.907862 C 31.541914 12.056351 31.94511 12.223266 32.34072 12.408606 C 32.73633 12.592863 33.123268 12.794461 33.501536 13.012317 C 33.879804 13.231257 34.248317 13.465372 34.605992 13.715744 C 34.963666 13.966116 35.309418 14.231662 35.644331 14.512382 C 35.978161 14.793103 36.300068 15.087913 36.608969 15.396814 C 36.917869 15.705714 37.21268 16.026538 37.4934 16.361451 C 37.77412 16.696364 38.039667 17.042116 38.290039 17.399791 " stroke="#04080c" stroke-width="5" stroke-opacity="1" stroke-miterlimit="4"/></g><path fill="#0d9373" d="M 298.433594 288.117188 C 298.433594 288.707031 298.40625 289.296875 298.347656 289.882812 C 298.289062 290.46875 298.203125 291.054688 298.085938 291.632812 C 297.972656 292.210938 297.828125 292.78125 297.65625 293.347656 C 297.488281 293.910156 297.289062 294.46875 297.0625 295.011719 C 296.835938 295.558594 296.585938 296.089844 296.304688 296.609375 C 296.027344 297.132812 295.722656 297.636719 295.398438 298.128906 C 295.070312 298.617188 294.71875 299.09375 294.34375 299.546875 C 293.96875 300.003906 293.574219 300.441406 293.15625 300.859375 C 292.738281 301.277344 292.300781 301.671875 291.84375 302.046875 C 291.390625 302.421875 290.914062 302.773438 290.425781 303.097656 C 289.933594 303.425781 289.429688 303.730469 288.90625 304.007812 C 288.386719 304.285156 287.855469 304.539062 287.308594 304.765625 C 286.765625 304.992188 286.210938 305.1875 285.644531 305.359375 C 285.078125 305.53125 284.507812 305.675781 283.929688 305.789062 C 283.351562 305.90625 282.765625 305.992188 282.179688 306.050781 C 281.59375 306.109375 281.003906 306.136719 280.414062 306.136719 C 279.824219 306.136719 279.234375 306.109375 278.648438 306.050781 C 278.058594 305.992188 277.476562 305.90625 276.898438 305.789062 C 276.320312 305.675781 275.746094 305.53125 275.183594 305.359375 C 274.617188 305.1875 274.0625 304.992188 273.519531 304.765625 C 272.972656 304.539062 272.441406 304.285156 271.917969 304.007812 C 271.398438 303.730469 270.894531 303.425781 270.402344 303.097656 C 269.910156 302.773438 269.4375 302.421875 268.980469 302.046875 C 268.527344 301.671875 268.089844 301.277344 267.671875 300.859375 C 267.253906 300.441406 266.859375 300.003906 266.484375 299.546875 C 266.109375 299.09375 265.757812 298.617188 265.429688 298.128906 C 265.101562 297.636719 264.800781 297.132812 264.519531 296.609375 C 264.242188 296.089844 263.992188 295.558594 263.765625 295.011719 C 263.539062 294.46875 263.339844 293.910156 263.167969 293.347656 C 263 292.78125 262.855469 292.210938 262.738281 291.632812 C 262.625 291.054688 262.539062 290.46875 262.480469 289.882812 C 262.421875 289.296875 262.394531 288.707031 262.394531 288.117188 C 262.394531 287.527344 262.421875 286.9375 262.480469 286.351562 C 262.539062 285.761719 262.625 285.179688 262.738281 284.601562 C 262.855469 284.023438 263 283.449219 263.167969 282.886719 C 263.339844 282.320312 263.539062 281.765625 263.765625 281.21875 C 263.992188 280.675781 264.242188 280.140625 264.519531 279.621094 C 264.800781 279.101562 265.101562 278.59375 265.429688 278.105469 C 265.757812 277.613281 266.109375 277.140625 266.484375 276.683594 C 266.859375 276.226562 267.253906 275.792969 267.671875 275.375 C 268.089844 274.957031 268.527344 274.5625 268.980469 274.1875 C 269.4375 273.8125 269.910156 273.460938 270.402344 273.132812 C 270.894531 272.804688 271.398438 272.503906 271.917969 272.222656 C 272.441406 271.945312 272.972656 271.695312 273.519531 271.46875 C 274.0625 271.242188 274.617188 271.042969 275.183594 270.871094 C 275.746094 270.699219 276.320312 270.558594 276.898438 270.441406 C 277.476562 270.328125 278.058594 270.242188 278.648438 270.183594 C 279.234375 270.125 279.824219 270.097656 280.414062 270.097656 C 281.003906 270.097656 281.59375 270.125 282.179688 270.183594 C 282.765625 270.242188 283.351562 270.328125 283.929688 270.441406 C 284.507812 270.558594 285.078125 270.699219 285.644531 270.871094 C 286.210938 271.042969 286.765625 271.242188 287.308594 271.46875 C 287.855469 271.695312 288.386719 271.945312 288.90625 272.222656 C 289.429688 272.503906 289.933594 272.804688 290.425781 273.132812 C 290.914062 273.460938 291.390625 273.8125 291.84375 274.1875 C 292.300781 274.5625 292.738281 274.957031 293.15625 275.375 C 293.574219 275.792969 293.96875 276.226562 294.34375 276.683594 C 294.71875 277.140625 295.070312 277.613281 295.398438 278.105469 C 295.722656 278.59375 296.027344 279.101562 296.304688 279.621094 C 296.585938 280.140625 296.835938 280.675781 297.0625 281.21875 C 297.289062 281.765625 297.488281 282.320312 297.65625 282.886719 C 297.828125 283.449219 297.972656 284.023438 298.085938 284.601562 C 298.203125 285.179688 298.289062 285.761719 298.347656 286.351562 C 298.40625 286.9375 298.433594 287.527344 298.433594 288.117188 Z M 298.433594 288.117188 " fill-opacity="1" fill-rule="nonzero"/></svg>