<svg xmlns="http://www.w3.org/2000/svg" width="1834" height="335" fill="none"><g fill="#000" clip-path="url(#a)"><path d="M171.634 53.137c-.784-3.784-6.183-3.8-6.989-.02l-4.953 23.2a27.03 27.03 0 0 1-21.265 20.89l-21.168 4.125c-3.831.746-3.859 6.218-.036 7.003l21.443 4.405a27.034 27.034 0 0 1 20.994 20.819l4.9 22.887c.806 3.768 6.185 3.763 6.985-.007l4.849-22.853a27.033 27.033 0 0 1 20.983-20.864l21.535-4.441c3.825-.789 3.79-6.264-.044-7.004l-21.115-4.074a27.031 27.031 0 0 1-21.347-21.054l-4.772-23.012z"/><path fill-rule="evenodd" d="m1.056 184.46-.001-.001a166.867 166.867 0 0 0 7.816 36.397h.002a167.235 167.235 0 0 0 22.603 44.198 168.712 168.712 0 0 0 18.456 21.652c30.309 30.011 72.004 48.544 118.027 48.544 92.646 0 167.75-75.104 167.75-167.75S260.605-.25 167.959-.25.209 74.854.209 167.5c0 5.725.287 11.383.847 16.96zm27.734 16.551a143.497 143.497 0 0 1-3.944-33.511c0-79.04 64.074-143.113 143.113-143.113S311.072 88.46 311.072 167.5c0 11.51-1.358 22.702-3.924 33.426a26.788 26.788 0 0 1-3.271.205c-10.869.032-17.805-4.191-27.541-10.417l-.48-.307c-9.634-6.163-22.025-14.091-40.642-13.979-18.354.11-30.596 7.979-40.088 14.079l-.499.321c-9.618 6.178-16.388 10.303-26.923 10.303-11.368 0-18.289-4.246-27.638-10.329l-.699-.455c-9.356-6.095-21.366-13.919-39.769-13.919-18.489 0-30.766 7.866-40.323 13.99l-.47.302c-9.644 6.176-16.529 10.379-27.35 10.411a27.19 27.19 0 0 1-2.665-.12zm42.985 72.462c25.41 23.077 59.155 37.14 96.184 37.14 36.858 0 70.461-13.933 95.83-36.819l-1.154-.899-.708-.551c-9.945-7.736-16.499-12.434-26.562-12.373-9.946.06-16.46 4.766-26.278 12.451l-.716.56c-9.244 7.246-21.779 17.071-40.667 17.071-19.831 0-32.456-10.006-41.836-17.441l-.381-.303c-9.759-7.732-15.955-12.338-25.889-12.338-10.01 0-16.512 4.678-26.364 12.363l-.698.546-.761.593zm209.129-18.071a143.081 143.081 0 0 0 17.739-29.478c-15.666-1.281-26.573-8.26-35.236-13.803l-.539-.345c-9.72-6.216-16.647-10.415-27.503-10.35-10.741.065-17.629 4.27-27.227 10.436l-.529.34c-9.468 6.086-21.668 13.928-39.905 13.928-19.181 0-31.478-8.001-41.085-14.253l-.187-.121c-9.527-6.199-16.096-10.329-26.834-10.329-10.807 0-17.684 4.179-27.311 10.345l-.53.339c-8.512 5.455-19.196 12.302-34.512 13.745a143.072 143.072 0 0 0 17.487 29.183 366.92 366.92 0 0 0 3.125-2.415l.655-.511c9.336-7.292 21.947-17.141 41.086-17.141 19.066 0 31.414 9.805 40.556 17.063l.03.024.827.656c9.565 7.578 16.12 12.339 26.693 12.339 9.733 0 16.125-4.61 25.974-12.318l.666-.522c9.279-7.271 21.856-17.127 40.87-17.242 19.264-.116 31.988 9.794 41.399 17.124l.664.517c1.258.979 2.463 1.91 3.627 2.789z" clip-rule="evenodd"/><path d="M549.917 95.477v23.047h-81.898v39.303h72.639v23.046h-72.639v58.646h-25.31V95.477h107.208zm150.885 0v81.693c0 43.006-24.282 64.613-61.939 64.613-37.45 0-61.32-21.607-61.32-63.379V95.477h25.31v81.898c0 26.751 13.787 41.155 36.422 41.155 22.429 0 36.216-13.581 36.216-40.126V95.477h25.311zm36.799 144.042V95.477h25.311v120.995h75.725v23.047H737.601zm129.461 0V95.477h25.311v120.995h75.725v23.047H867.062zM1144.59 95.477v22.635h-81.48v37.451h72.22v22.635h-72.22v38.686h82.51v22.635H1037.8V95.477h106.79zm133.74 99.595V95.477h24.9V239.52h-21.19l-79.43-102.475V239.52h-24.9V95.477h23.46l77.16 99.595zm186.24 44.447h-29.84l-35.39-50.209h-31.69v50.209h-25.31V95.477h64.2c33.13 0 53.5 17.491 53.5 45.682 0 23.87-14.2 38.274-34.37 43.83l38.9 54.53zm-30.25-96.92c0-15.844-11.11-24.075-29.84-24.075h-36.83v48.357h37.04c18.1 0 29.63-9.466 29.63-24.282zm60.22-47.122h25.31V239.52h-25.31V95.477zm191.24 120.995c-15.02 15.639-31.48 25.516-58.44 25.516-41.98 0-73.25-32.718-73.25-74.284 0-41.155 30.66-74.696 74.28-74.696 26.55 0 42.6 9.26 56.38 22.429l-16.25 18.726c-11.53-10.701-23.87-17.903-40.34-17.903-27.57 0-47.53 22.636-47.53 51.032 0 28.397 19.96 51.444 47.53 51.444 17.7 0 29.02-7.202 41.37-18.725l16.25 16.461zm122.7-37.656h-68.73v60.703h-25.31V95.477h25.31v59.88h68.73v-59.88h25.31V239.52h-25.31v-60.703z"/></g><defs><clipPath id="a"><path fill="#fff" d="M0 0h1834v335H0z"/></clipPath></defs></svg>