<svg xmlns="http://www.w3.org/2000/svg" xmlns:xlink="http://www.w3.org/1999/xlink" width="5120" zoomAndPan="magnify" viewBox="0 0 3840 1079.999946" height="1440" preserveAspectRatio="xMidYMid meet" version="1.0"><defs><g/><clipPath id="08e38a1985"><path d="M 108.042969 141.675781 L 590 141.675781 L 590 877.675781 L 108.042969 877.675781 Z M 108.042969 141.675781 " clip-rule="nonzero"/></clipPath><clipPath id="3f8a51cfe4"><path d="M 310 141.675781 L 910.707031 141.675781 L 910.707031 704 L 310 704 Z M 310 141.675781 " clip-rule="nonzero"/></clipPath></defs><g clip-path="url(#08e38a1985)"><path fill="#144ee3" d="M 321.625 297.085938 L 589.351562 305.339844 L 108.050781 141.28125 L 509.398438 877.527344 L 572.855469 761.113281 L 509.398438 643.90625 L 321.625 297.085938 " fill-opacity="1" fill-rule="nonzero"/></g><g clip-path="url(#3f8a51cfe4)"><path fill="#144ee3" d="M 726.332031 245.953125 L 598.894531 479.722656 L 540.632812 586.601562 L 604.125 703.757812 L 910.742188 141.28125 L 310.839844 141.28125 L 726.332031 245.953125 " fill-opacity="1" fill-rule="nonzero"/></g><path fill="#144ee3" d="M 540.632812 586.601562 L 598.894531 479.722656 L 523.164062 339.84375 L 404.941406 336.207031 L 540.632812 586.601562 " fill-opacity="1" fill-rule="nonzero"/><g fill="#000000" fill-opacity="1"><g transform="translate(995.476637, 720.004162)"><g><path d="M 128.175781 -54.3125 L 128.175781 -506.910156 L 67.347656 -506.910156 L 67.347656 0 L 367.148438 0 L 367.148438 -54.3125 Z M 128.175781 -54.3125 "/></g></g></g><g fill="#000000" fill-opacity="1"><g transform="translate(1331.483423, 720.004162)"><g><path d="M 211.453125 -355.558594 C 115.863281 -355.558594 36.207031 -294.007812 32.585938 -183.933594 C 28.964844 -65.175781 110.796875 6.515625 226.660156 6.515625 C 269.386719 6.515625 313.558594 -3.621094 354.835938 -23.171875 L 346.144531 -65.898438 C 305.59375 -49.242188 267.9375 -40.550781 228.109375 -40.550781 C 149.175781 -40.550781 85.449219 -88.347656 89.070312 -168.726562 L 364.972656 -168.726562 C 384.527344 -283.867188 330.214844 -354.835938 211.453125 -355.558594 Z M 211.453125 -310.664062 C 273.730469 -310.664062 322.25 -278.074219 318.628906 -212.175781 L 91.242188 -212.175781 C 100.65625 -275.179688 147.726562 -310.664062 211.453125 -310.664062 Z M 211.453125 -310.664062 "/></g></g></g><g fill="#000000" fill-opacity="1"><g transform="translate(1689.938938, 720.004162)"><g><path d="M 289.660156 -63 C 289.660156 0.722656 317.179688 11.585938 375.113281 2.171875 L 374.386719 -34.757812 C 331.664062 -28.964844 333.835938 -51.414062 333.835938 -89.796875 L 333.835938 -235.351562 C 336.007812 -326.59375 259.972656 -355.558594 181.039062 -355.558594 C 134.691406 -355.558594 90.519531 -346.871094 56.484375 -329.492188 L 65.898438 -284.59375 C 95.589844 -301.972656 132.519531 -309.9375 172.347656 -309.9375 C 220.144531 -309.9375 282.421875 -295.457031 282.421875 -236.796875 L 282.421875 -186.109375 C 247.660156 -205.660156 202.039062 -211.453125 162.210938 -211.453125 C 89.796875 -211.453125 28.964844 -173.074219 28.964844 -95.589844 C 28.964844 -24.621094 87.621094 6.515625 152.074219 6.515625 C 204.9375 6.515625 264.316406 -14.484375 289.660156 -63 Z M 281.695312 -142.660156 L 281.695312 -120.210938 C 267.214844 -63.726562 207.832031 -42 162.210938 -42 C 123.105469 -42 84.726562 -54.3125 84.726562 -99.210938 C 84.726562 -149.175781 130.347656 -167.28125 175.246094 -167.28125 C 215.796875 -167.28125 259.972656 -155.691406 281.695312 -142.660156 Z M 281.695312 -142.660156 "/></g></g></g><g fill="#000000" fill-opacity="1"><g transform="translate(2041.153046, 720.004162)"><g><path d="M 319.351562 -74.589844 C 319.351562 0.722656 351.9375 10.863281 408.421875 1.449219 L 407.699219 -39.828125 C 357.734375 -34.035156 366.421875 -68.070312 366.421875 -115.140625 L 366.421875 -530.082031 L 309.9375 -530.082031 L 309.9375 -320.800781 C 274.453125 -344.699219 236.796875 -355.558594 200.589844 -355.558594 C 110.796875 -356.285156 32.585938 -287.488281 32.585938 -175.246094 C 32.585938 -77.484375 89.070312 6.515625 193.347656 6.515625 C 249.109375 5.792969 295.457031 -21.726562 319.351562 -74.589844 Z M 311.386719 -268.660156 L 311.386719 -160.039062 C 309.214844 -97.035156 267.9375 -44.171875 201.316406 -44.171875 C 126.003906 -44.171875 89.796875 -105.726562 89.796875 -175.246094 C 89.796875 -258.523438 141.933594 -304.871094 205.660156 -305.59375 C 239.695312 -306.316406 277.351562 -294.007812 311.386719 -268.660156 Z M 311.386719 -268.660156 "/></g></g></g><g fill="#000000" fill-opacity="1"><g transform="translate(2433.64379, 720.004162)"><g><path d="M 113.691406 -291.109375 C 115.863281 -346.144531 78.207031 -359.179688 23.171875 -349.765625 L 23.898438 -307.765625 C 70.242188 -313.558594 65.175781 -277.351562 65.175781 -232.453125 L 65.175781 179.589844 L 121.65625 179.589844 L 121.65625 -23.898438 C 157.140625 0 194.796875 6.515625 231.003906 6.515625 C 320.800781 6.515625 399.007812 -65.175781 399.007812 -176.695312 C 399.007812 -276.628906 343.25 -355.558594 241.144531 -355.558594 C 194.074219 -355.558594 143.382812 -339.628906 113.691406 -291.109375 Z M 120.210938 -76.761719 L 120.210938 -191.175781 C 122.382812 -251.28125 163.660156 -304.144531 230.28125 -304.144531 C 308.488281 -304.144531 341.078125 -246.210938 341.078125 -176.695312 C 341.078125 -91.96875 285.316406 -43.449219 220.867188 -43.449219 C 187.554688 -43.449219 152.074219 -51.414062 120.210938 -76.761719 Z M 120.210938 -76.761719 "/></g></g></g><g fill="#000000" fill-opacity="1"><g transform="translate(2823.237989, 720.004162)"><g><path d="M 49.242188 -464.183594 C 49.242188 -415.664062 120.933594 -415.664062 120.933594 -464.183594 C 120.933594 -511.976562 49.242188 -511.976562 49.242188 -464.183594 Z M 112.96875 0 L 112.96875 -349.042969 L 56.484375 -349.042969 L 56.484375 0 Z M 112.96875 0 "/></g></g></g><g fill="#000000" fill-opacity="1"><g transform="translate(2949.96436, 720.004162)"><g><path d="M 113.691406 -291.109375 C 115.863281 -346.144531 78.207031 -359.179688 23.171875 -349.765625 L 23.898438 -307.765625 C 70.242188 -313.558594 65.175781 -277.351562 65.175781 -232.453125 L 65.175781 179.589844 L 121.65625 179.589844 L 121.65625 -23.898438 C 157.140625 0 194.796875 6.515625 231.003906 6.515625 C 320.800781 6.515625 399.007812 -65.175781 399.007812 -176.695312 C 399.007812 -276.628906 343.25 -355.558594 241.144531 -355.558594 C 194.074219 -355.558594 143.382812 -339.628906 113.691406 -291.109375 Z M 120.210938 -76.761719 L 120.210938 -191.175781 C 122.382812 -251.28125 163.660156 -304.144531 230.28125 -304.144531 C 308.488281 -304.144531 341.078125 -246.210938 341.078125 -176.695312 C 341.078125 -91.96875 285.316406 -43.449219 220.867188 -43.449219 C 187.554688 -43.449219 152.074219 -51.414062 120.210938 -76.761719 Z M 120.210938 -76.761719 "/></g></g></g><g fill="#000000" fill-opacity="1"><g transform="translate(3339.558559, 720.004162)"><g><path d="M 211.453125 -355.558594 C 115.863281 -355.558594 36.207031 -294.007812 32.585938 -183.933594 C 28.964844 -65.175781 110.796875 6.515625 226.660156 6.515625 C 269.386719 6.515625 313.558594 -3.621094 354.835938 -23.171875 L 346.144531 -65.898438 C 305.59375 -49.242188 267.9375 -40.550781 228.109375 -40.550781 C 149.175781 -40.550781 85.449219 -88.347656 89.070312 -168.726562 L 364.972656 -168.726562 C 384.527344 -283.867188 330.214844 -354.835938 211.453125 -355.558594 Z M 211.453125 -310.664062 C 273.730469 -310.664062 322.25 -278.074219 318.628906 -212.175781 L 91.242188 -212.175781 C 100.65625 -275.179688 147.726562 -310.664062 211.453125 -310.664062 Z M 211.453125 -310.664062 "/></g></g></g></svg>