<svg xmlns="http://www.w3.org/2000/svg" xmlns:xlink="http://www.w3.org/1999/xlink" width="500" zoomAndPan="magnify" viewBox="0 0 375 374.999991" height="500" preserveAspectRatio="xMidYMid meet" version="1.0"><defs><clipPath id="a857471d2c"><path d="M 96.207031 18.363281 L 372 18.363281 L 372 228 L 96.207031 228 Z M 96.207031 18.363281 " clip-rule="nonzero"/></clipPath><clipPath id="b15bf763cc"><path d="M 371.894531 18.363281 L 96.257812 18.363281 L 287.164062 66.46875 L 228.613281 173.882812 L 257.765625 227.742188 Z M 371.894531 18.363281 " clip-rule="nonzero"/></clipPath><clipPath id="fd7c0c2c8a"><path d="M 3.101562 18.363281 L 224.6875 18.363281 L 224.6875 357 L 3.101562 357 Z M 3.101562 18.363281 " clip-rule="nonzero"/></clipPath><clipPath id="1b16ee1986"><path d="M 3.105469 18.363281 L 187.503906 356.636719 L 216.65625 303.164062 L 187.503906 249.300781 L 101.226562 89.957031 L 224.234375 93.746094 Z M 3.105469 18.363281 " clip-rule="nonzero"/></clipPath><clipPath id="6b775428aa"><path d="M 139.035156 107.742188 L 229 107.742188 L 229 223 L 139.035156 223 Z M 139.035156 107.742188 " clip-rule="nonzero"/></clipPath><clipPath id="8a611e6bd0"><path d="M 228.613281 173.882812 L 228.605469 173.867188 L 193.820312 109.589844 L 139.5 107.933594 L 201.851562 222.980469 Z M 228.613281 173.882812 " clip-rule="nonzero"/></clipPath><clipPath id="ba926fdadd"><path d="M 201.722656 173.535156 L 258 173.535156 L 258 277 L 201.722656 277 Z M 201.722656 173.535156 " clip-rule="nonzero"/></clipPath><clipPath id="a0f3eaf4e9"><path d="M 228.613281 173.882812 L 201.851562 222.972656 L 231.035156 276.777344 L 257.765625 227.742188 Z M 228.613281 173.882812 " clip-rule="nonzero"/></clipPath></defs><g clip-path="url(#a857471d2c)"><g clip-path="url(#b15bf763cc)"><path fill="#144ee3" d="M 0 15.257812 L 374.894531 15.257812 L 374.894531 359.742188 L 0 359.742188 Z M 0 15.257812 " fill-opacity="1" fill-rule="nonzero"/></g></g><g clip-path="url(#fd7c0c2c8a)"><g clip-path="url(#1b16ee1986)"><path fill="#187eff" d="M 0 15.257812 L 374.894531 15.257812 L 374.894531 359.742188 L 0 359.742188 Z M 0 15.257812 " fill-opacity="1" fill-rule="nonzero"/></g></g><g clip-path="url(#6b775428aa)"><g clip-path="url(#8a611e6bd0)"><path fill="#187eff" d="M 0 15.257812 L 374.894531 15.257812 L 374.894531 359.742188 L 0 359.742188 Z M 0 15.257812 " fill-opacity="1" fill-rule="nonzero"/></g></g><g clip-path="url(#ba926fdadd)"><g clip-path="url(#a0f3eaf4e9)"><path fill="#144ee3" d="M 0 15.257812 L 374.894531 15.257812 L 374.894531 359.742188 L 0 359.742188 Z M 0 15.257812 " fill-opacity="1" fill-rule="nonzero"/></g></g></svg>