<svg width="1036" height="278" viewBox="0 0 1036 278" fill="none" xmlns="http://www.w3.org/2000/svg">
<path d="M198.53 180.79V258.06C188.6 263.73 173.53 272.41 164.03 277.97L100.83 241.45C97.4102 239.45 91.1502 235.89 86.5702 233.3V94.3C93.0602 90.59 101.81 85.54 107.34 82.3L119.18 75.45C119.8 75.08 120.45 74.78 121.18 74.4L147 89.33C146.23 89.83 145.71 90.2 145.16 90.52C135.99 95.8 126.84 101.13 117.66 106.36C116.091 107.154 114.784 108.384 113.897 109.902C113.01 111.421 112.581 113.163 112.66 114.92C112.7 147.48 112.7 180.053 112.66 212.64C112.576 214.364 112.993 216.076 113.861 217.568C114.729 219.061 116.01 220.27 117.55 221.05C131.55 229.097 145.523 237.163 159.47 245.25C165.68 248.84 172.58 244.95 172.65 237.75C172.74 229.93 172.65 222.12 172.65 214.3C172.65 208.95 172.65 199.94 172.65 193.36L197.15 179.29C197.53 179.08 197.95 178.93 198.58 178.65L198.53 180.79ZM167.32 81.41C169.008 82.2673 170.41 83.5976 171.355 85.2384C172.3 86.8792 172.746 88.7596 172.64 90.65C172.56 101.03 172.64 111.42 172.64 121.82V124.17C173.55 123.69 174.12 123.41 174.64 123.07C181.31 119.22 191.21 113.44 198.54 109.25C198.54 97.5 198.54 82.62 198.54 71.25C198.54 70.66 198.48 70.07 198.47 69.45L78.2001 0C77.0901 0.61 76.0902 1.14 75.1302 1.7C51.4802 15.34 24.4902 30.91 0.660156 44.6C0.730156 56.32 0.660156 70.99 0.660156 82.46V84.46C23.5602 97.67 46.3402 110.81 69.4702 124.17C69.5302 123.12 69.5802 122.48 69.5802 121.83C69.5802 113.76 69.5802 102.61 69.5802 94.21C57.7002 87.4 43.0402 78.95 31.4902 72.21C30.3507 71.5682 29.3348 70.7284 28.4902 69.73C27.7398 68.7424 27.2134 67.6034 26.9473 66.392C26.6812 65.1806 26.6818 63.9258 26.9492 62.7147C27.2165 61.5036 27.7442 60.3651 28.4955 59.3783C29.2468 58.3915 30.2038 57.58 31.3002 57C45.3002 49 59.2735 40.9333 73.2202 32.8C74.6897 31.8323 76.4106 31.3165 78.1702 31.3165C79.9297 31.3165 81.6506 31.8323 83.1201 32.8C89.4301 36.54 95.8201 40.18 102.18 43.8C123.88 56.3667 145.593 68.9033 167.32 81.41ZM284.42 19.82C276.1 15.06 264.79 8.55 257.96 4.61C255.29 3.06 252.59 1.54 249.96 0.0299988C226.96 13.29 204.11 26.49 181.05 39.81C189.92 44.91 198.44 49.81 206.98 54.81C207.64 54.45 208.21 54.15 208.78 53.81C215.667 49.85 222.54 45.8867 229.4 41.92C234.68 38.8867 239.95 35.8433 245.21 32.79C246.524 31.9134 248.056 31.4185 249.634 31.3602C251.212 31.3019 252.776 31.6824 254.151 32.4596C255.526 33.2368 256.659 34.3802 257.423 35.7625C258.187 37.1449 258.553 38.7121 258.48 40.29C258.48 56.5033 258.48 72.72 258.48 88.94C258.494 89.7296 258.417 90.5181 258.25 91.29C257.63 94.17 255.72 95.95 253.25 97.36C243.877 102.693 234.543 108.073 225.25 113.5C206.397 124.373 187.553 135.257 168.72 146.15C167.309 147.029 165.676 147.489 164.014 147.474C162.351 147.46 160.726 146.973 159.33 146.07L132.33 130.47C131.54 130.03 130.72 129.63 129.63 129.06V131.29V156.9C129.569 157.54 129.71 158.183 130.033 158.739C130.355 159.295 130.844 159.736 131.43 160C138.92 164.23 146.34 168.56 153.79 172.86C157.22 174.86 160.66 176.8 164.1 178.78L167.97 176.57C187.83 165.103 207.7 153.63 227.58 142.15C245 132.09 266.58 119.68 284.46 109.43C284.39 82.39 284.39 46.14 284.42 19.82Z" fill="url(#paint0_linear_149_484)"/>
<path d="M407.401 96.56H376.271V192.44H351.071V96.56H319.941V73.21H407.401V96.56Z" fill="#131415"/>
<path d="M479.21 98.4902L471.67 121.83C443.87 118.5 440.35 136.29 440.35 153.71V192.44H416.82V98.4902H440.35V113.87C447.39 102.19 463.71 93.0802 479.21 98.4902Z" fill="#131415"/>
<path d="M487.603 72.17C487.621 69.695 488.373 67.2809 489.763 65.2333C491.153 63.1856 493.12 61.5964 495.414 60.6666C497.707 59.7369 500.225 59.5085 502.649 60.0103C505.073 60.5121 507.293 61.7216 509.029 63.4856C510.765 65.2497 511.939 67.4891 512.402 69.9205C512.865 72.3519 512.596 74.866 511.63 77.1446C510.664 79.4232 509.043 81.364 506.973 82.7214C504.904 84.0788 502.478 84.7917 500.003 84.77C498.358 84.7689 496.73 84.4407 495.213 83.8046C493.696 83.1685 492.32 82.2372 491.166 81.0647C490.013 79.8923 489.103 78.5021 488.492 76.9752C487.88 75.4482 487.578 73.8148 487.603 72.17ZM488.343 98.49H511.873V192.44H488.343V98.49Z" fill="#131415"/>
<path d="M648.802 72.1702C648.82 69.696 649.571 67.2827 650.96 65.2355C652.35 63.1882 654.315 61.5989 656.608 60.6686C658.9 59.7382 661.418 59.5086 663.841 60.0088C666.264 60.5089 668.484 61.7164 670.221 63.4785C671.958 65.2405 673.133 67.4781 673.599 69.9082C674.064 72.3382 673.798 74.8517 672.835 77.1307C671.872 79.4098 670.254 81.352 668.187 82.7118C666.12 84.0716 663.696 84.7879 661.222 84.7702C659.576 84.7703 657.946 84.4432 656.427 83.8078C654.908 83.1724 653.531 82.2415 652.376 81.069C651.22 79.8966 650.309 78.5061 649.695 76.9784C649.082 75.4507 648.778 73.8163 648.802 72.1702ZM649.552 98.4902H673.082V192.44H649.552V98.4902Z" fill="#131415"/>
<path d="M725.523 98.49H751.603V120H725.523V192.46H702.003V120H684.633L701.723 98.51H702.003C702.003 79.23 710.523 53.44 735.913 53.44C739.203 53.3482 742.494 53.5961 745.733 54.18V73.8C744.433 73.8 743.133 73.61 741.653 73.61C729.603 73.61 725.523 87 725.523 98.49Z" fill="#131415"/>
<path d="M851.152 98.4902L800.632 226.63H776.542L793.002 186.88L754.082 98.4902H779.472L803.752 160.56L825.752 98.4902H851.152Z" fill="#131415"/>
<path d="M876.54 181.13C876.523 183.823 875.707 186.451 874.196 188.681C872.685 190.91 870.547 192.642 868.052 193.656C865.557 194.671 862.817 194.923 860.179 194.381C857.541 193.839 855.123 192.527 853.23 190.61C851.338 188.694 850.056 186.26 849.546 183.615C849.037 180.97 849.324 178.234 850.369 175.752C851.415 173.27 853.173 171.153 855.421 169.67C857.67 168.188 860.307 167.404 863 167.42C866.613 167.447 870.067 168.905 872.606 171.475C875.144 174.045 876.559 177.518 876.54 181.13Z" fill="url(#paint1_linear_149_484)"/>
<path d="M895.251 72.1702C895.269 69.696 896.02 67.2827 897.41 65.2355C898.799 63.1882 900.764 61.5989 903.057 60.6686C905.35 59.7382 907.867 59.5086 910.29 60.0088C912.713 60.5089 914.933 61.7164 916.67 63.4785C918.407 65.2405 919.583 67.4781 920.048 69.9082C920.513 72.3382 920.247 74.8517 919.284 77.1307C918.321 79.4098 916.703 81.352 914.636 82.7118C912.569 84.0716 910.145 84.7879 907.671 84.7702C906.025 84.7703 904.395 84.4432 902.876 83.8078C901.358 83.1724 899.98 82.2415 898.825 81.069C897.669 79.8966 896.758 78.5061 896.145 76.9784C895.531 75.4507 895.227 73.8163 895.251 72.1702ZM895.991 98.4902H919.531V192.44H896.001L895.991 98.4902Z" fill="url(#paint2_linear_149_484)"/>
<path d="M1035.34 145.55C1035.34 172.98 1014.03 194.84 985.679 194.84C957.509 194.84 936.199 172.98 936.199 145.55C936.199 117.94 957.509 96.2598 985.679 96.2598C1014 96.2598 1035.34 117.94 1035.34 145.55ZM1011.25 145.55C1011.25 130.91 1001.42 118.87 985.679 118.87C970.109 118.87 960.289 130.87 960.289 145.55C960.289 160.23 970.109 172.24 985.679 172.24C1001.42 172.24 1011.25 160.19 1011.25 145.55Z" fill="url(#paint3_linear_149_484)"/>
<path d="M603.78 98.4898V110.72C598.04 102.56 588.78 96.2598 574.13 96.2598C545.78 96.2598 528.55 117.94 528.55 142.26C528.55 166.58 545.78 188.26 574.13 188.26C588.77 188.26 598.04 181.96 603.78 173.81V180.67C603.78 199.01 595.44 205.78 577.28 205.78C568.35 205.78 562.61 203.45 558.11 200.45C556.558 199.42 555.161 198.174 553.96 196.75L553.87 196.64C553.674 196.395 553.494 196.137 553.33 195.87H528.5C529.094 199.281 530.428 202.52 532.41 205.36C535.743 210.084 539.965 214.112 544.84 217.22C549.77 220.35 555.148 222.711 560.79 224.22C566.381 225.845 572.177 226.657 578 226.63C611.35 226.63 627.29 208.56 627.29 182.24V98.4898H603.78ZM577.65 167.23C562.46 167.23 552.65 156.3 552.65 142.23C552.65 128.16 562.47 117.23 577.65 117.23C593.41 117.23 602.65 128.54 602.65 142.23C602.65 155.92 593.41 167.23 577.65 167.23Z" fill="#131415"/>
<defs>
<linearGradient id="paint0_linear_149_484" x1="43.8402" y1="205.23" x2="239.61" y2="16.1" gradientUnits="userSpaceOnUse">
<stop stop-color="#D70F8D"/>
<stop offset="0.18" stop-color="#D8138C"/>
<stop offset="0.35" stop-color="#DA1D88"/>
<stop offset="0.51" stop-color="#DF3081"/>
<stop offset="0.66" stop-color="#E54978"/>
<stop offset="0.81" stop-color="#EC6A6D"/>
<stop offset="0.95" stop-color="#F6925E"/>
<stop offset="1" stop-color="#F9A159"/>
</linearGradient>
<linearGradient id="paint1_linear_149_484" x1="881.54" y1="181.13" x2="843.23" y2="181.13" gradientUnits="userSpaceOnUse">
<stop stop-color="#D60F8D"/>
<stop offset="1" stop-color="#F9A159"/>
</linearGradient>
<linearGradient id="paint2_linear_149_484" x1="897.801" y1="126.1" x2="1006.36" y2="126.1" gradientUnits="userSpaceOnUse">
<stop stop-color="#D60F8D"/>
<stop offset="1" stop-color="#F9A159"/>
</linearGradient>
<linearGradient id="paint3_linear_149_484" x1="897.799" y1="145.55" x2="1006.36" y2="145.55" gradientUnits="userSpaceOnUse">
<stop stop-color="#D60F8D"/>
<stop offset="1" stop-color="#F9A159"/>
</linearGradient>
</defs>
</svg>
