<svg xmlns="http://www.w3.org/2000/svg" xmlns:xlink="http://www.w3.org/1999/xlink" width="272" height="272" viewBox="117 75 121 121" preserveAspectRatio="xMidYMid meet" version="1.0"><defs><clipPath id="40fa86e4c3"><path d="M 42.789062 0 L 314.289062 0 L 314.289062 271.503906 L 42.789062 271.503906 Z M 42.789062 0 " clip-rule="nonzero"/></clipPath><clipPath id="2e4342e9a2"><path d="M 42.789062 0 L 282 0 L 282 271.503906 L 42.789062 271.503906 Z M 42.789062 0 " clip-rule="nonzero"/></clipPath><clipPath id="97cf88f00b"><path d="M 42.789062 0 L 314.289062 0 L 314.289062 239 L 42.789062 239 Z M 42.789062 0 " clip-rule="nonzero"/></clipPath></defs><g clip-path="url(#40fa86e4c3)"><path stroke-linecap="butt" transform="matrix(5.221193, 0, 0, 5.221193, 42.787967, 0.00000997253)" fill="none" stroke-linejoin="miter" d="M 40.939876 27.309818 C 40.901721 27.744495 40.844861 28.176927 40.768549 28.606367 C 40.692986 29.036554 40.598719 29.462253 40.485748 29.883463 C 40.372028 30.304673 40.241102 30.720646 40.091471 31.130634 C 39.942589 31.540622 39.775751 31.943876 39.590957 32.338901 C 39.406911 32.734673 39.20491 33.121468 38.987198 33.499285 C 38.768737 33.877103 38.534565 34.244446 38.283934 34.602063 C 38.034051 34.95968 37.768457 35.305326 37.4879 35.639751 C 37.207342 35.974175 36.91257 36.29588 36.604331 36.604119 C 36.295344 36.912358 35.974387 37.207131 35.639962 37.487688 C 35.305538 37.768245 34.959891 38.033839 34.602274 38.283722 C 34.244657 38.534353 33.877314 38.768525 33.499497 38.986986 C 33.120932 39.205447 32.734885 39.4067 32.339112 39.590745 C 31.94334 39.775539 31.540833 39.942377 31.130846 40.092008 C 30.720858 40.24089 30.304885 40.372565 29.883675 40.485536 C 29.461717 40.598507 29.036766 40.692774 28.606578 40.769086 C 28.177139 40.844649 27.744706 40.901509 27.31003 40.939665 " stroke="#0d9373" stroke-width="5" stroke-opacity="1" stroke-miterlimit="4"/></g><g clip-path="url(#2e4342e9a2)"><path stroke-linecap="butt" transform="matrix(5.221193, 0, 0, 5.221193, 42.787967, 0.00000997253)" fill="none" stroke-linejoin="miter" d="M 17.399998 38.289708 C 17.042381 38.039825 16.695987 37.77423 16.361562 37.492925 C 16.027138 37.212368 15.705432 36.917595 15.396445 36.609356 C 15.087458 36.300369 14.793434 35.978664 14.512129 35.644239 C 14.231571 35.309815 13.965977 34.96342 13.715346 34.605803 C 13.465463 34.248186 13.230543 33.880095 13.012082 33.50153 C 12.79437 33.123713 12.592369 32.736918 12.408323 32.341145 C 12.223529 31.945372 12.056691 31.542118 11.907061 31.131382 C 11.758178 30.721394 11.627252 30.305421 11.514281 29.883463 C 11.400561 29.461505 11.306294 29.035806 11.230731 28.605618 C 11.155167 28.175431 11.098308 27.742998 11.060152 27.307573 C 11.021996 26.872897 11.003292 26.436724 11.003292 26.000551 C 11.003292 25.563629 11.021996 25.127456 11.060152 24.69278 C 11.098308 24.257355 11.155915 23.824922 11.231479 23.394734 C 11.30779 22.965295 11.402058 22.538848 11.515029 22.117638 C 11.628 21.69568 11.759675 21.279707 11.908557 20.868971 C 12.058188 20.458983 12.225026 20.055729 12.409819 19.659956 " stroke="#0d9373" stroke-width="5" stroke-opacity="1" stroke-miterlimit="4"/></g><g clip-path="url(#97cf88f00b)"><path stroke-linecap="butt" transform="matrix(5.221193, 0, 0, 5.221193, 42.787967, 0.00000997253)" fill="none" stroke-linejoin="miter" d="M 19.660168 12.410356 C 20.055941 12.225562 20.458447 12.057976 20.869183 11.909094 C 21.27917 11.759463 21.695143 11.627788 22.117101 11.514817 C 22.53906 11.401846 22.964758 11.307579 23.394946 11.231267 C 23.825134 11.155704 24.257566 11.098844 24.692991 11.060688 C 25.127668 11.022533 25.563841 11.003081 26.000014 11.003081 C 26.436935 11.003081 26.873108 11.021784 27.307785 11.05994 C 27.74321 11.098096 28.175642 11.154956 28.605082 11.230519 C 29.03527 11.306831 29.461717 11.401098 29.882927 11.514069 C 30.304885 11.62704 30.720858 11.757967 31.131594 11.907597 C 31.541582 12.05648 31.944836 12.223318 32.340609 12.408111 C 32.736381 12.592905 33.123925 12.794158 33.501742 13.012619 C 33.880307 13.231079 34.24765 13.465251 34.606015 13.715882 C 34.963632 13.965765 35.309279 14.23136 35.643703 14.512665 C 35.978875 14.793222 36.300581 15.087995 36.60882 15.396982 C 36.917807 15.705221 37.212579 16.026926 37.493137 16.361351 C 37.773694 16.695775 38.039288 17.04217 38.289919 17.399787 " stroke="#0d9373" stroke-width="5" stroke-opacity="1" stroke-miterlimit="4"/></g><path fill="#0d9373" d="M 204.644531 135.75 C 204.644531 136.605469 204.601562 137.460938 204.519531 138.308594 C 204.433594 139.160156 204.308594 140.003906 204.144531 140.84375 C 203.976562 141.683594 203.769531 142.511719 203.519531 143.328125 C 203.273438 144.148438 202.984375 144.953125 202.65625 145.742188 C 202.332031 146.53125 201.964844 147.304688 201.5625 148.058594 C 201.160156 148.8125 200.71875 149.542969 200.246094 150.253906 C 199.769531 150.964844 199.261719 151.652344 198.71875 152.3125 C 198.175781 152.972656 197.601562 153.605469 197 154.210938 C 196.394531 154.816406 195.761719 155.390625 195.101562 155.929688 C 194.441406 156.472656 193.753906 156.980469 193.042969 157.457031 C 192.332031 157.933594 191.597656 158.371094 190.84375 158.773438 C 190.089844 159.175781 189.320312 159.542969 188.527344 159.871094 C 187.738281 160.195312 186.933594 160.484375 186.117188 160.734375 C 185.300781 160.980469 184.46875 161.1875 183.632812 161.355469 C 182.792969 161.523438 181.949219 161.648438 181.097656 161.730469 C 180.246094 161.816406 179.394531 161.855469 178.539062 161.855469 C 177.683594 161.855469 176.832031 161.816406 175.980469 161.730469 C 175.128906 161.648438 174.285156 161.523438 173.445312 161.355469 C 172.605469 161.1875 171.777344 160.980469 170.960938 160.734375 C 170.144531 160.484375 169.339844 160.195312 168.546875 159.871094 C 167.757812 159.542969 166.988281 159.175781 166.234375 158.773438 C 165.480469 158.371094 164.746094 157.933594 164.035156 157.457031 C 163.324219 156.980469 162.636719 156.472656 161.976562 155.929688 C 161.316406 155.390625 160.683594 154.816406 160.078125 154.210938 C 159.476562 153.605469 158.902344 152.972656 158.359375 152.3125 C 157.816406 151.652344 157.308594 150.964844 156.832031 150.253906 C 156.359375 149.542969 155.917969 148.8125 155.515625 148.058594 C 155.113281 147.304688 154.746094 146.53125 154.421875 145.742188 C 154.09375 144.953125 153.804688 144.148438 153.558594 143.328125 C 153.308594 142.511719 153.101562 141.683594 152.933594 140.84375 C 152.769531 140.003906 152.640625 139.160156 152.558594 138.308594 C 152.476562 137.460938 152.433594 136.605469 152.433594 135.75 C 152.433594 134.894531 152.476562 134.042969 152.558594 133.191406 C 152.640625 132.339844 152.769531 131.496094 152.933594 130.65625 C 153.101562 129.820312 153.308594 128.992188 153.558594 128.171875 C 153.804688 127.355469 154.09375 126.550781 154.421875 125.761719 C 154.746094 124.972656 155.113281 124.199219 155.515625 123.445312 C 155.917969 122.691406 156.359375 121.957031 156.832031 121.246094 C 157.308594 120.535156 157.816406 119.851562 158.359375 119.191406 C 158.902344 118.527344 159.476562 117.894531 160.078125 117.292969 C 160.683594 116.6875 161.316406 116.113281 161.976562 115.570312 C 162.636719 115.027344 163.324219 114.519531 164.035156 114.042969 C 164.746094 113.570312 165.480469 113.128906 166.234375 112.726562 C 166.988281 112.324219 167.757812 111.960938 168.546875 111.632812 C 169.339844 111.304688 170.144531 111.015625 170.960938 110.769531 C 171.777344 110.519531 172.605469 110.3125 173.445312 110.148438 C 174.285156 109.980469 175.128906 109.855469 175.980469 109.769531 C 176.832031 109.6875 177.683594 109.644531 178.539062 109.644531 C 179.394531 109.644531 180.246094 109.6875 181.097656 109.769531 C 181.949219 109.855469 182.792969 109.980469 183.632812 110.148438 C 184.46875 110.3125 185.300781 110.519531 186.117188 110.769531 C 186.933594 111.015625 187.738281 111.304688 188.527344 111.632812 C 189.320312 111.960938 190.089844 112.324219 190.84375 112.726562 C 191.597656 113.128906 192.332031 113.570312 193.042969 114.042969 C 193.753906 114.519531 194.441406 115.027344 195.101562 115.570312 C 195.761719 116.113281 196.394531 116.6875 197 117.292969 C 197.601562 117.894531 198.175781 118.527344 198.71875 119.191406 C 199.261719 119.851562 199.769531 120.535156 200.246094 121.246094 C 200.71875 121.957031 201.160156 122.691406 201.5625 123.445312 C 201.964844 124.199219 202.332031 124.972656 202.65625 125.761719 C 202.984375 126.550781 203.273438 127.355469 203.519531 128.171875 C 203.769531 128.992188 203.976562 129.820312 204.144531 130.65625 C 204.308594 131.496094 204.433594 132.339844 204.519531 133.191406 C 204.601562 134.042969 204.644531 134.894531 204.644531 135.75 Z M 204.644531 135.75 " fill-opacity="1" fill-rule="nonzero"/></svg>
